<?xml version="1.0" encoding="UTF-8"?>
<svg version="1.1" xmlns="http://www.w3.org/2000/svg" width="1024" height="1024">
<path d="M0 0 C8.26907205 0.00232115 16.53814204 0.00255724 24.80721432 0.00148559 C26.00329794 0.00133236 27.19938155 0.00117913 28.43171012 0.00102125 C30.86453325 0.0007014 33.29735637 0.00037718 35.73017949 0.00004866 C58.29870354 -0.00277206 80.86722347 0.00042754 103.43574685 0.00584903 C122.65436916 0.01032324 141.87298543 0.00952935 161.09160763 0.00493027 C183.62775575 -0.0004605 206.16390031 -0.00250728 228.70004898 0.00054253 C231.11691497 0.00086095 233.53378095 0.00117533 235.95064694 0.00148559 C237.13860786 0.00163987 238.32656879 0.00179414 239.55052853 0.0019531 C247.78446783 0.00280415 256.01840477 0.0013573 264.25234371 -0.00099396 C290.93624565 -0.00768129 317.61975777 0.01408983 344.30348355 0.11691738 C347.53421941 0.12924019 350.76494923 0.1396147 353.99569851 0.14767338 C361.94254256 0.16786932 369.88837952 0.20870188 377.83483464 0.29785348 C379.99993481 0.31932617 382.1651283 0.33330058 384.33032948 0.33816863 C419.58187964 0.44106607 450.70914237 13.64116672 475.93340451 38.26030136 C487.46037347 49.86078416 495.65794824 63.26795904 502.30840451 78.13530136 C502.79051388 79.21166855 503.27262326 80.28803573 503.76934201 81.39702011 C511.82429434 100.85095045 511.96366836 120.30157344 512.0390747 140.98861672 C512.0582647 145.1600078 512.09929618 149.33119869 512.13696045 153.50245614 C512.21709878 162.90675992 512.26220892 172.31105309 512.29865494 181.71561441 C512.31099176 184.77741717 512.32565187 187.83920625 512.34043645 190.900998 C512.42930052 209.43643006 512.44827727 227.97159245 512.44007595 246.50720932 C512.43673792 254.49053785 512.43953752 262.47386233 512.44227654 270.45719068 C512.44744592 286.06599497 512.44712649 301.67479508 512.44419763 317.28359974 C512.44165441 330.9073362 512.44103809 344.53107116 512.44222027 358.15480781 C512.44233485 359.52482838 512.44233485 359.52482838 512.44245174 360.92252612 C512.44276319 364.63197303 512.4430816 368.34141993 512.4434115 372.05086683 C512.44644616 406.58510844 512.44373332 441.11934742 512.43831461 475.65358862 C512.43354704 506.27159908 512.43401692 536.88960538 512.4387756 567.50761581 C512.44413151 602.0818963 512.446255 636.6561745 512.44316334 671.23045535 C512.44284268 674.91315576 512.44252984 678.59585618 512.44222027 682.27855659 C512.44214119 683.18503706 512.44206212 684.09151753 512.44198064 685.02546711 C512.44084613 698.67610618 512.44216738 712.32674359 512.44469982 725.97738243 C512.44755827 741.46042781 512.44684474 756.94346845 512.44141908 772.42651324 C512.43848707 781.07780952 512.43828523 789.72909551 512.44206525 798.38039152 C512.44431261 804.16231414 512.44290317 809.94422853 512.43856049 815.72614993 C512.4361899 819.01572193 512.43590619 822.30526956 512.43896647 825.59484158 C512.46049316 850.65754057 512.46049316 850.65754057 511.30840451 862.13530136 C495.88982424 849.08764955 481.71080348 834.67289379 467.47261268 820.3679719 C464.99490317 817.88006963 462.51376358 815.39559282 460.03290707 812.91082931 C453.76754005 806.63450898 447.50650258 800.35387814 441.24590451 794.07280136 C434.45001442 787.25476191 427.65330153 780.43755254 420.85171568 773.62519438 C417.91878631 770.68732896 414.98829913 767.74705689 412.05976337 764.80481208 C409.808632 762.54440133 407.55421231 760.28727356 405.30034786 758.02958847 C404.50490063 757.22897491 403.70945339 756.42836136 402.8899017 755.60348678 C398.71548268 751.4286765 394.46047264 747.42141648 389.97230774 743.58465076 C387.21362257 741.18168729 384.75864488 738.50619052 382.26543576 735.83452011 C380.07066602 733.92888171 378.04449605 733.06623406 375.30840451 732.13530136 C369.91607695 736.3346268 366.09146701 740.61498214 362.43993586 746.37563349 C351.76174927 762.90132152 336.93414313 779.71241045 316.95220933 784.09940665 C289.78900255 789.09242983 261.10994897 787.32330312 233.64812132 786.6191939 C221.27743194 786.31070093 208.90890644 786.25377558 196.53491748 786.20772079 C174.43448188 786.11897324 152.3409453 785.83859124 130.24419552 785.43412948 C108.89600992 785.04378197 87.55033951 784.74632699 66.19927365 784.57280136 C64.88265946 784.56206965 63.56604527 784.55133795 62.20953368 784.54028104 C55.59786371 784.48693419 48.98618149 784.43531973 42.37449211 784.38444258 C1.94459735 784.07092618 -38.48242788 783.63193854 -78.90836388 782.98261619 C-82.04590225 782.93228756 -85.18345175 782.88270554 -88.32100338 782.83321167 C-100.27528266 782.64315293 -112.22896136 782.43203509 -124.18223414 782.18646253 C-126.69078241 782.13531794 -129.19936614 782.08625883 -131.70795745 782.03727604 C-135.66043151 781.95865086 -139.61252034 781.86910689 -143.56455665 781.77096728 C-144.99151919 781.73670385 -146.4185563 781.70537966 -147.84565664 781.67743871 C-181.68156611 781.00045819 -211.58795006 765.87752234 -235.23065799 742.08403183 C-245.85856794 730.99487943 -253.44752042 718.09416341 -259.69159549 704.13530136 C-260.17370487 703.05893417 -260.65581424 701.98256698 -261.15253299 700.87358261 C-267.52289456 685.48819422 -269.30842797 670.01394344 -269.43350834 653.51518417 C-269.4611374 651.6389408 -269.49005409 649.76271602 -269.52015144 647.88651062 C-269.60707405 641.96957882 -269.65284242 636.05271758 -269.69159549 630.13530136 C-269.69865334 629.18569471 -269.70571118 628.23608806 -269.71298289 627.25770546 C-269.81626636 613.29284538 -269.83067938 599.32845117 -269.82232016 585.36326957 C-269.82000761 579.61536338 -269.82357403 573.86745989 -269.82630008 568.11955429 C-269.83069561 556.92484614 -269.82980942 545.73014479 -269.82688744 534.5354364 C-269.82460861 525.41926941 -269.8243315 516.30310429 -269.82541126 507.1869371 C-269.82556449 505.87855558 -269.82571773 504.57017406 -269.8258756 503.22214461 C-269.8261954 500.56237102 -269.82651961 497.90259743 -269.82684819 495.24282385 C-269.82970383 471.13470619 -269.82676934 447.02659193 -269.8215056 422.91847486 C-269.81676188 401.02590465 -269.81718659 379.13334027 -269.82196659 357.24077011 C-269.82734989 332.50385742 -269.82941025 307.76694798 -269.82635432 283.03003479 C-269.82603585 280.38124506 -269.82572148 277.73245534 -269.82541126 275.08366562 C-269.82525698 273.781156 -269.82510271 272.47864639 -269.82494376 271.13666678 C-269.82408829 262.05478994 -269.82552032 252.97291519 -269.82789081 243.89103866 C-269.83072529 232.7899008 -269.82987499 221.68876998 -269.82461007 210.5876329 C-269.82202145 204.94771096 -269.8208833 199.30780067 -269.82425922 193.66787887 C-269.83162035 179.82319153 -269.79449179 165.97961992 -269.69159549 152.13530136 C-269.68520044 151.15880567 -269.67880538 150.18230999 -269.67221653 149.17622352 C-269.6320038 143.29333088 -269.56871459 137.41141738 -269.47435336 131.52913595 C-269.44777248 129.72407267 -269.42716659 127.91890822 -269.41348095 126.11370111 C-269.12909348 91.78820743 -256.13221655 63.01711792 -232.69159549 38.13530136 C-232.09218143 37.47143417 -231.49276737 36.80756698 -230.87518924 36.12358261 C-211.98819161 16.01280543 -182.23641338 1.7641627 -154.62279361 0.81856132 C-152.36943356 0.77793597 -150.11587088 0.74767776 -147.86224979 0.72590805 C-146.60301763 0.70685936 -145.34378547 0.68781068 -144.04639477 0.66818476 C-140.55059158 0.6165452 -137.05475352 0.57779683 -133.55875462 0.54216275 C-131.29336755 0.51823299 -129.02804387 0.49092959 -126.76270717 0.4626484 C-84.51080896 -0.061003 -42.25439332 -0.01215672 0 0 Z M-46.62909549 203.51030136 C-47.38317692 203.75701584 -48.13725834 204.00373031 -48.91419071 204.25792099 C-67.7128406 210.43931223 -76.98183802 217.74558481 -87.06659549 235.07280136 C-87.7150745 236.17164657 -88.3635535 237.27049179 -89.03168339 238.40263534 C-97.04327498 252.03615244 -104.74661903 265.78052705 -111.65106815 280.00981308 C-112.73268274 282.21923039 -113.84211784 284.41328598 -114.95331424 286.60795761 C-137.23189244 331.23790494 -151.64466156 381.5215566 -156.69159549 431.13530136 C-156.77732822 431.96327225 -156.86306095 432.79124313 -156.95139164 433.64430404 C-158.69273477 451.02308082 -158.97459949 468.32823616 -158.88721317 485.77671982 C-158.87629919 488.52761617 -158.87674811 491.27846342 -158.87735122 494.02937771 C-158.87701093 497.38111073 -158.86816518 500.73279773 -158.85956424 504.08452011 C-158.85845142 505.29001007 -158.8573386 506.49550003 -158.85619205 507.73751999 C-158.82321166 513.73170008 -158.67907949 519.71442802 -158.36859745 525.70097519 C-158.31210529 526.81555603 -158.25561313 527.93013687 -158.19740909 529.07849289 C-157.44747104 533.61063079 -155.78248981 536.24146054 -152.25336307 539.13310409 C-151.29067508 539.77191513 -150.3279871 540.41072616 -149.33612674 541.06889511 C-148.25121952 541.79310653 -147.16631229 542.51731796 -146.04852909 543.26347519 C-144.86764081 544.03415474 -143.68614718 544.80390741 -142.50409549 545.57280136 C-141.28094472 546.37707246 -140.05780027 547.18135318 -138.8346619 547.98564316 C-106.33679009 569.23983877 -71.98372068 586.7581239 -35.44159549 599.88530136 C-34.31686329 600.29475494 -34.31686329 600.29475494 -33.16940922 600.71248031 C-31.03041012 601.48715693 -28.88592131 602.24379328 -26.73847049 602.99467636 C-25.49935917 603.43263534 -24.26024784 603.87059433 -22.98358768 604.3218248 C-19.65744646 605.14373985 -17.90167925 605.23778715 -14.69159549 604.13530136 C-2.37188242 591.92156431 5.94170161 572.64871099 13.30840451 557.13530136 C5.06899506 552.92331343 -3.31613664 549.08878909 -11.76972049 545.32866073 C-26.60589803 538.62384973 -26.60589803 538.62384973 -30.69159549 535.13530136 C-30.69159549 533.81530136 -30.69159549 532.49530136 -30.69159549 531.13530136 C-29.35826216 530.46863469 -28.02492883 529.80196803 -26.69159549 529.13530136 C-26.06503055 528.77073837 -25.43846561 528.40617538 -24.79291385 528.03056503 C-18.27927318 525.25543777 -7.69802511 531.24901628 -1.56662601 533.58735824 C49.64300709 553.02538606 105.70286182 561.8465211 160.30840451 554.13530136 C161.42521603 553.9793248 162.54202755 553.82334823 163.69268185 553.66264511 C195.72093513 549.04626802 226.53475187 540.52968847 256.29888302 527.81743027 C259.29857247 526.7991904 261.35892779 527.08191682 264.30840451 528.13530136 C266.55840451 529.69780136 266.55840451 529.69780136 268.30840451 531.13530136 C268.96840451 531.13530136 269.62840451 531.13530136 270.30840451 531.13530136 C270.30840451 532.45530136 270.30840451 533.77530136 270.30840451 535.13530136 C258.99687685 541.79508967 247.51276901 547.44782638 235.3750549 552.46660019 C234.3411462 552.90254501 233.30723751 553.33848984 232.24199826 553.78764511 C231.31443722 554.16912704 230.38687618 554.55060898 229.43120724 554.94365097 C226.97712394 556.00837957 226.97712394 556.00837957 226.30840451 559.13530136 C227.54207425 561.80928052 228.84036153 564.27963442 230.30840451 566.82280136 C230.74684689 567.59575546 231.18528927 568.36870956 231.63701779 569.16508652 C235.67532123 576.20004013 239.91080284 583.11582853 244.18340451 590.01030136 C245.14633419 591.57010727 245.14633419 591.57010727 246.12871701 593.16142441 C246.74231076 594.14022568 247.35590451 595.11902694 247.98809201 596.12748886 C248.53191525 596.99744491 249.07573849 597.86740097 249.63604122 598.76371933 C251.37773142 601.23361401 252.94124572 603.24636491 255.30840451 605.13530136 C257.52905944 605.33500932 257.52905944 605.33500932 259.82793576 604.63530136 C260.70917111 604.41487167 261.59040646 604.19444198 262.49834591 603.96733261 C267.39497216 602.5174888 272.20170334 600.89390771 276.99590451 599.13530136 C278.08097286 598.74012314 279.16604122 598.34494491 280.28399044 597.93779159 C291.49777597 593.79162053 302.43308334 589.0937367 313.30840451 584.13530136 C314.18947872 583.73730331 315.07055294 583.33930527 315.97832638 582.92924667 C359.4681087 563.5040155 359.4681087 563.5040155 396.30840451 534.13530136 C400.74825544 520.81574856 398.49456071 503.49218314 398.49370724 489.6667955 C398.49588249 485.73756551 398.51406325 481.80862217 398.53301388 477.87944198 C398.58191865 456.50419101 397.52052932 435.37126351 394.05840451 414.26030136 C393.8988377 413.26928924 393.8988377 413.26928924 393.73604733 412.25825668 C387.20702435 371.84371823 375.48597177 332.31602122 358.30840451 295.13530136 C357.84563107 294.13144394 357.38285763 293.12758652 356.90606076 292.09330917 C346.25444771 269.13749542 334.37839787 246.88302962 320.76543576 225.53764511 C319.30840451 223.13530136 319.30840451 223.13530136 318.32012326 220.95170761 C313.8013587 211.57212062 301.05442265 208.68753203 291.92559201 205.39702011 C289.3481813 204.5259815 286.76952626 203.66680844 284.18340451 202.82280136 C283.49085568 202.59396255 282.79830685 202.36512375 282.08477169 202.12935043 C264.69779666 196.3993061 247.0425576 191.65693341 229.30840451 187.13530136 C228.64083126 186.96496383 227.97325802 186.79462631 227.28545529 186.61912704 C223.13136852 185.5623425 218.97223571 184.52796804 214.80840451 183.51030136 C213.29633419 183.13844711 213.29633419 183.13844711 211.75371701 182.75908066 C210.83332638 182.54034286 209.91293576 182.32160507 208.96465451 182.09623886 C208.17897091 181.90851913 207.39328732 181.72079941 206.58379513 181.5273912 C204.09470223 181.0984767 201.82915434 180.97568239 199.30840451 181.13530136 C193.38594398 186.60578464 189.79957549 196.42263294 186.06621701 203.53764511 C185.7273547 204.18209579 185.3884924 204.82654648 185.03936154 205.49052597 C184.17303341 207.13992818 184.17303341 207.13992818 184.30840451 209.13530136 C183.43482296 209.04442245 182.56124142 208.95354355 181.66118771 208.85991073 C142.6618657 204.95321695 102.92032314 203.85012713 63.97246701 208.85991073 C61.39554243 209.1262937 58.89682848 209.18471673 56.30840451 209.13530136 C55.96583615 208.46998398 55.62326779 207.80466659 55.27031857 207.11918808 C53.7033417 204.08098816 52.13092656 201.04563463 50.55840451 198.01030136 C50.01957638 196.96358261 49.48074826 195.91686386 48.92559201 194.83842636 C45.00460509 187.2503935 45.00460509 187.2503935 40.30840451 180.13530136 C12.97177881 180.13530136 -20.90500956 195.00611173 -46.62909549 203.51030136 Z " fill="#13102F" transform="translate(390.69159549474716,110.86469864100218)"/>
<path d="M0 0 C12.30681396 8.50443282 20.87422172 19.87962903 24.95703125 34.26953125 C27.81781471 50.02266121 27.1569158 67.50012775 18.875 81.5078125 C10.96734456 92.89419212 0.86224915 102.64499119 -13.03125 105.8359375 C-26.11097438 107.71901066 -39.2436059 106.79925794 -50.09765625 98.78515625 C-51.06058594 98.03492188 -51.06058594 98.03492188 -52.04296875 97.26953125 C-53.03296875 96.56828125 -54.02296875 95.86703125 -55.04296875 95.14453125 C-63.24022961 87.9976158 -68.63646696 78.46041054 -72.04296875 68.26953125 C-72.28789063 67.55796875 -72.5328125 66.84640625 -72.78515625 66.11328125 C-76.9258515 51.36559955 -74.15679916 33.8835208 -67.35546875 20.39453125 C-59.63482328 7.53965654 -48.94450522 -1.10598007 -34.42578125 -5.0703125 C-22.62918004 -7.37242059 -10.52896911 -5.98759091 0 0 Z " fill="#131131" transform="translate(627.04296875,474.73046875)"/>
<path d="M0 0 C13.17118641 9.87292912 21.65429726 22.40383002 24.94140625 38.6640625 C27.26985525 56.1054635 24.06334373 72.74995312 13.6484375 87.12109375 C6.09223312 96.36352479 -4.57303638 104.3289141 -16.64453125 105.765625 C-32.98935259 106.74143523 -44.14558431 104.37599245 -56.83203125 93.515625 C-67.95684149 83.10685435 -74.12072881 70.64127533 -74.90234375 55.46875 C-75.50444693 37.30281085 -71.90101989 23.03574104 -59.89453125 9.015625 C-44.56413033 -7.18296554 -19.555165 -11.82570998 0 0 Z " fill="#12102E" transform="translate(442.64453125,475.234375)"/>
</svg>
