<?xml version="1.0" encoding="UTF-8"?>
<svg version="1.1" xmlns="http://www.w3.org/2000/svg" width="1024" height="1024">
<path d="M0 0 C1.42797374 -0.00322706 2.85594718 -0.00659212 4.28392029 -0.01008606 C7.27351645 -0.01604611 10.26308387 -0.01792968 13.25268555 -0.01733398 C16.2631643 -0.01725345 19.27348854 -0.02408305 22.28393555 -0.0378418 C46.5791446 -0.14695412 70.58679624 0.52211486 94.55859375 4.85546875 C95.29167755 4.98524109 96.02476135 5.11501343 96.78005981 5.24871826 C179.20743924 19.90154244 254.35127505 57.52333017 315.55078125 114.59033203 C317.46438012 116.37110333 319.38666581 118.14228518 321.30859375 119.9140625 C322.72562082 121.22747585 324.14229032 122.5412751 325.55859375 123.85546875 C326.21641846 124.46100586 326.87424316 125.06654297 327.55200195 125.69042969 C331.49290609 129.36495559 335.11586529 133.19179111 338.62280273 137.28198242 C340.88814673 139.91392442 343.25418853 142.43942185 345.62109375 144.98046875 C355.56877133 155.77667472 364.45955265 167.42097435 373.24609375 179.16796875 C373.73980469 179.82474609 374.23351562 180.48152344 374.7421875 181.15820312 C414.92158552 235.00295196 439.02467535 300.53047842 449.49609375 366.48046875 C449.64723633 367.41971191 449.79837891 368.35895508 449.95410156 369.32666016 C452.97821414 389.54315992 453.6204525 409.75678433 453.55859375 430.16796875 C453.55585953 432.04616806 453.55585953 432.04616806 453.55307007 433.96231079 C453.50676529 452.88165761 452.96787562 471.42091901 450.24609375 490.16796875 C450.08512207 491.35003906 449.92415039 492.53210938 449.75830078 493.75 C439.01473883 571.27702915 406.44203723 643.48659099 357.24609375 704.16796875 C356.58351563 705.00585938 355.9209375 705.84375 355.23828125 706.70703125 C345.51849567 718.86572982 334.59304548 729.91626197 323.63796997 740.95132446 C322.601826 741.99551685 321.56716614 743.04118444 320.53414917 744.08847046 C313.78728288 750.91867044 306.76273962 757.18197151 299.24609375 763.16796875 C298.12152616 764.11522676 297.00191546 765.06845017 295.890625 766.03125 C237.50854132 816.52168651 165.56674651 846.90892133 89.93359375 859.98046875 C88.82830322 860.17543945 87.7230127 860.37041016 86.58422852 860.57128906 C66.46927151 863.85784785 46.15256569 864.50135151 25.80761719 864.42871094 C22.24787378 864.41797412 18.68863475 864.42869643 15.12890625 864.44140625 C-5.24704669 864.45508833 -25.5386507 863.49459363 -45.62890625 859.91796875 C-46.87663818 859.70108398 -48.12437012 859.48419922 -49.40991211 859.26074219 C-127.32094698 845.41645593 -198.96220493 812.06582186 -258.75390625 760.16796875 C-259.46546875 759.55695312 -260.17703125 758.9459375 -260.91015625 758.31640625 C-262.87443556 756.61778767 -264.81765402 754.89847122 -266.75390625 753.16796875 C-267.60855469 752.40613281 -268.46320313 751.64429688 -269.34375 750.859375 C-275.40498331 745.38392531 -281.27946464 739.74526645 -287.06640625 733.98046875 C-287.72382813 733.32763916 -288.38125 732.67480957 -289.05859375 732.00219727 C-293.49286541 727.55392854 -297.65724409 722.92682941 -301.75390625 718.16796875 C-302.6796812 717.11993654 -303.60668402 716.07298713 -304.53515625 715.02734375 C-329.66144413 686.44137342 -349.64117623 654.04102003 -366.75390625 620.16796875 C-367.16527832 619.35602051 -367.57665039 618.54407227 -368.00048828 617.70751953 C-393.40430217 567.12376086 -408.87176295 507.59481002 -408.921875 450.875 C-408.92510507 449.51714547 -408.92847029 448.15929126 -408.93196106 446.80143738 C-408.93790666 443.96502888 -408.93980611 441.12865061 -408.93920898 438.29223633 C-408.93912838 435.4409339 -408.94597277 432.58979437 -408.9597168 429.73852539 C-409.06489581 407.56020152 -408.60070527 385.43063112 -405.06640625 363.48046875 C-404.89979492 362.42980225 -404.73318359 361.37913574 -404.56152344 360.29663086 C-392.07610295 285.16941158 -359.54061094 214.52069397 -310.75390625 156.16796875 C-310.31884766 155.64654297 -309.88378906 155.12511719 -309.43554688 154.58789062 C-296.59432244 139.24724592 -283.0233289 123.94527416 -267.79296875 110.9296875 C-265.52698395 108.97191136 -263.33247131 106.94567927 -261.12890625 104.91796875 C-254.92473459 99.33421425 -248.37628806 94.23825405 -241.75390625 89.16796875 C-240.99223145 88.58176758 -240.23055664 87.99556641 -239.44580078 87.39160156 C-228.2090737 78.76319947 -216.82394147 70.59033007 -204.75390625 63.16796875 C-204.11018066 62.76835937 -203.46645508 62.36875 -202.80322266 61.95703125 C-174.19659109 44.29523199 -143.67616271 30.59110326 -111.75390625 20.16796875 C-110.87863281 19.87470703 -110.00335938 19.58144531 -109.1015625 19.27929688 C-81.84139589 10.18582376 -53.28790824 4.38854586 -24.75390625 1.16796875 C-24.07084915 1.08241226 -23.38779205 0.99685577 -22.68403625 0.90870667 C-15.12746269 0.03783539 -7.59848039 0.00410229 0 0 Z M-178.75390625 130.16796875 C-179.48013184 130.65620117 -180.20635742 131.14443359 -180.95458984 131.64746094 C-194.90553774 141.10182232 -208.02943609 151.52547046 -220.38671875 162.984375 C-222.42996469 164.86915137 -224.50989284 166.68238476 -226.62890625 168.48046875 C-230.33910728 171.70872614 -233.83211507 175.13753342 -237.31640625 178.60546875 C-237.84669434 179.13116455 -238.37698242 179.65686035 -238.92333984 180.19848633 C-243.06464738 184.35574651 -246.93612302 188.71344166 -250.75390625 193.16796875 C-251.56541138 194.11144165 -251.56541138 194.11144165 -252.39331055 195.07397461 C-313.82928972 267.02644077 -344.47753976 360.40060353 -338.34091187 463.5178833 C-332.67673171 533.62254073 -304.32329029 601.27908787 -260.75390625 656.16796875 C-260.026875 657.08964844 -259.29984375 658.01132812 -258.55078125 658.9609375 C-253.10066952 665.75397244 -247.26948745 672.13308615 -241.31982422 678.484375 C-239.73350515 680.18990295 -238.1653335 681.91050952 -236.6015625 683.63671875 C-231.87905164 688.83962295 -227.18262802 693.94136732 -221.77734375 698.453125 C-219.3777977 700.48671712 -217.10997074 702.64059967 -214.81640625 704.79296875 C-208.1412041 710.88409071 -200.95956039 716.26861107 -193.72998047 721.6796875 C-192.0285819 722.96109665 -190.34455689 724.26551515 -188.6640625 725.57421875 C-164.5735692 744.22492324 -114.75676902 780.16796875 -82.75390625 780.16796875 C-81.9025298 770.50027497 -81.63760063 760.95089192 -81.6769371 751.25472832 C-81.68860433 747.15220116 -81.66769758 743.04976486 -81.65234375 738.94726562 C-81.6341768 733.78258838 -81.62523583 728.61850772 -81.65429688 723.45385742 C-81.8431403 686.20026377 -81.8431403 686.20026377 -73.75390625 669.16796875 C-73.22474609 668.02287842 -72.69558594 666.87778809 -72.15039062 665.69799805 C-67.67132238 656.57345401 -61.12883085 648.86790843 -53.22265625 642.54296875 C-52.73796875 642.08921875 -52.25328125 641.63546875 -51.75390625 641.16796875 C-51.75390625 640.50796875 -51.75390625 639.84796875 -51.75390625 639.16796875 C-52.71353271 639.01763184 -53.67315918 638.86729492 -54.66186523 638.71240234 C-100.54900934 631.48161565 -145.52480441 622.27484117 -181.75390625 591.16796875 C-182.59824219 590.44738281 -183.44257813 589.72679687 -184.3125 588.984375 C-219.86983803 557.86477027 -236.73706912 510.75539148 -240.24194336 464.47192383 C-243.12857303 419.86551982 -239.42449111 376.05496985 -212.62890625 338.60546875 C-212.22172363 338.03538086 -211.81454102 337.46529297 -211.39501953 336.87792969 C-209.47820556 334.26946599 -207.51003981 331.92672051 -205.20703125 329.6484375 C-202.7711878 327.18398515 -201.11537792 325.36288894 -199.75390625 322.16796875 C-200.11899291 317.99554981 -201.05274712 314.42854067 -202.40234375 310.48828125 C-206.08909167 299.3833018 -206.15800477 287.98756825 -206.12890625 276.41796875 C-206.12836243 275.60460052 -206.1278186 274.7912323 -206.1272583 273.95321655 C-206.06828394 254.70893782 -203.67974738 236.78916203 -197.0234375 218.65234375 C-196.10370552 216.12803319 -195.36705885 213.76577142 -194.75390625 211.16796875 C-181.1307136 210.68430511 -168.85723618 211.29537059 -155.75390625 215.16796875 C-154.99883789 215.38807617 -154.24376953 215.60818359 -153.46582031 215.83496094 C-131.03165652 222.57931961 -110.18213978 233.76174078 -90.421875 246.171875 C-89.60291748 246.68580811 -88.78395996 247.19974121 -87.94018555 247.72924805 C-85.75390625 249.16796875 -85.75390625 249.16796875 -84.06176758 250.50708008 C-81.15196494 252.79872554 -79.93871698 253.18392509 -76.1796875 252.859375 C-74.80262339 252.50554485 -73.43169775 252.12730682 -72.06640625 251.73046875 C-70.45300957 251.32210563 -68.83833513 250.91876933 -67.22265625 250.51953125 C-66.34609375 250.29813477 -65.46953125 250.07673828 -64.56640625 249.84863281 C-17.7523849 238.51898945 34.67380183 236.75812997 82.24609375 244.16796875 C83.45555664 244.35552734 84.66501953 244.54308594 85.91113281 244.73632812 C98.53508434 246.75172519 111.03788155 249.06302136 123.33984375 252.56640625 C127.8666335 253.50340305 129.38615472 252.7151022 133.28515625 250.234375 C134.48242292 249.40254523 135.67759995 248.56770277 136.87109375 247.73046875 C155.94268814 234.7392318 177.0667177 223.96533838 198.93359375 216.60546875 C199.88830566 216.28304199 200.84301758 215.96061523 201.82666016 215.62841797 C211.49603746 212.52082446 221.14405536 210.80181359 231.30859375 210.98046875 C232.04013672 210.98111328 232.77167969 210.98175781 233.52539062 210.98242188 C236.68980685 211.00852613 239.22439449 211.16073566 242.24609375 212.16796875 C246.20914748 218.77731965 248.05021305 226.63571004 249.93359375 234.04296875 C250.13581543 234.8316333 250.33803711 235.62029785 250.54638672 236.43286133 C253.55856908 248.83648153 254.62478229 261.11179047 254.55859375 273.85546875 C254.55743561 274.55085754 254.55627747 275.24624634 254.55508423 275.96270752 C254.50909689 289.97619304 253.68719171 303.90779673 248.69921875 317.16015625 C248.06957032 319.95015014 248.30832544 321.44283007 249.24609375 324.16796875 C250.98058434 326.47095459 252.73615338 328.62180425 254.62109375 330.79296875 C276.58118051 357.21044795 288.28127297 391.5198233 288.44921875 425.6796875 C288.45627838 426.64266754 288.46333801 427.60564758 288.47061157 428.59780884 C288.69919838 468.91475614 288.69919838 468.91475614 285.24609375 486.16796875 C284.94010254 487.72402832 284.94010254 487.72402832 284.62792969 489.31152344 C276.32791143 530.35251619 259.41307598 569.15550628 225.24609375 595.16796875 C224.27929688 595.93496094 223.3125 596.70195313 222.31640625 597.4921875 C187.78725525 624.12509535 141.77431282 634.46600394 99.24609375 639.16796875 C101.99210776 642.41982745 104.74097693 645.63179297 107.66015625 648.73046875 C115.47559461 657.04175063 120.6070757 664.86356414 124.49609375 675.54296875 C124.74262695 676.21408691 124.98916016 676.88520508 125.24316406 677.57666016 C129.53277931 690.04502314 129.57687943 702.69376636 129.66015625 715.71484375 C129.67890162 717.58100203 129.69847744 719.44715214 129.71884155 721.31329346 C129.76981328 726.18586368 129.80962436 731.05846129 129.84698486 735.93115234 C129.88724571 740.91901221 129.93823645 745.90676165 129.98828125 750.89453125 C130.08462568 760.65226579 130.16916102 770.41006319 130.24609375 780.16796875 C135.3749532 779.14101193 140.13384347 778.0304417 144.8984375 775.8046875 C145.90914307 775.33659668 146.91984863 774.86850586 147.96118164 774.38623047 C149.02457764 773.8810791 150.08797363 773.37592773 151.18359375 772.85546875 C152.30950928 772.32711426 153.4354248 771.79875977 154.59545898 771.25439453 C186.82594698 756.03947473 216.22931849 739.25927096 244.24609375 717.16796875 C245.2515625 716.37777344 246.25703125 715.58757813 247.29296875 714.7734375 C253.49407888 709.8000038 259.33330893 704.48756871 265.1328125 699.05859375 C267.7448222 696.61722583 270.42223326 694.26324719 273.12109375 691.91796875 C284.14824585 682.00249702 293.92603401 670.82031704 302.84960938 659.00146484 C304.33073253 657.05684336 305.8402976 655.13694176 307.35546875 653.21875 C346.42245043 603.47734374 369.60218968 545.17083494 380.24609375 483.16796875 C380.38772949 482.36149902 380.52936523 481.5550293 380.67529297 480.72412109 C395.18723365 395.50463215 371.03560684 299.76843219 322.35546875 229.140625 C321.659375 228.15964844 320.96328125 227.17867187 320.24609375 226.16796875 C319.77880859 225.5013623 319.31152344 224.83475586 318.83007812 224.14794922 C309.33337153 210.62135126 299.11125014 198.12212307 287.875 186.01953125 C285.39635226 183.33095347 282.9752869 180.59963833 280.55859375 177.85546875 C277.39699381 174.33700392 274.13505542 171.17280605 270.51953125 168.12890625 C268.20765829 166.13481651 265.98564442 164.05889759 263.76513672 161.96411133 C256.59862342 155.22435357 249.08995069 149.09842914 241.24609375 143.16796875 C240.66134277 142.72098633 240.0765918 142.27400391 239.47412109 141.81347656 C229.14493774 133.93687174 218.35500111 126.89373718 207.24609375 120.16796875 C206.59624512 119.77399902 205.94639648 119.3800293 205.27685547 118.97412109 C168.93939983 97.198543 128.65835749 83.37151508 87.24609375 75.16796875 C86.43785156 75.00458008 85.62960937 74.84119141 84.796875 74.67285156 C-5.03606311 56.98450755 -103.26604266 79.3281762 -178.75390625 130.16796875 Z " fill="#12102F" transform="translate(489.75390625,79.83203125)"/>
</svg>
