<?xml version="1.0" encoding="UTF-8"?>
<svg version="1.1" xmlns="http://www.w3.org/2000/svg" width="1024" height="1024">
<path d="M0 0 C0.95375519 0.00060425 1.90751038 0.0012085 2.89016724 0.00183105 C17.39300089 0.02675027 31.71920635 0.3837123 46.125 2.1875 C47.73906738 2.38085938 47.73906738 2.38085938 49.38574219 2.578125 C141.10841794 13.79357813 222.610916 56.29917886 287.9375 120.8125 C288.55496094 121.41690918 289.17242188 122.02131836 289.80859375 122.64404297 C291.28719861 124.119694 292.71170166 125.64918726 294.125 127.1875 C294.125 127.8475 294.125 128.5075 294.125 129.1875 C294.785 129.1875 295.445 129.1875 296.125 129.1875 C297.56049726 130.78084239 298.92327327 132.44001082 300.25 134.125 C303.05896871 137.67869529 305.93085049 141.10363808 308.96875 144.46484375 C313.07864325 149.06094131 316.82484766 153.86501137 320.5 158.8125 C321.15137939 159.68712891 321.80275879 160.56175781 322.47387695 161.46289062 C327.95783428 168.87514589 333.2099472 176.3865623 338.125 184.1875 C338.57375488 184.89712891 339.02250977 185.60675781 339.48486328 186.33789062 C370.5839113 235.90033371 391.33216339 291.97301159 398.125 350.1875 C398.21006805 350.88888092 398.29513611 351.59026184 398.38278198 352.31289673 C400.09449785 366.73918567 400.4668312 381.06739108 400.44067383 395.58666992 C400.43752469 399.22150022 400.46104091 402.8555044 400.48632812 406.49023438 C400.54422042 427.87449219 398.82958143 449.15274671 394.875 470.1875 C394.66520508 471.32372803 394.45541016 472.45995605 394.23925781 473.63061523 C388.33879332 504.60805384 378.9892761 534.4040941 366.125 563.1875 C365.67817871 564.18958496 365.23135742 565.19166992 364.77099609 566.22412109 C347.89697826 603.63265799 324.74719632 638.20510145 296.8203125 668.2734375 C294.347608 670.94682527 291.91873619 673.65286833 289.5 676.375 C283.43482004 683.12129642 277.08999969 689.4881093 270.19921875 695.390625 C267.92342282 697.3621243 265.71577333 699.39884395 263.5 701.4375 C205.71357683 753.42771659 129.81080972 786.117028 53.125 796.1875 C51.86051025 796.36555176 50.59602051 796.54360352 49.29321289 796.72705078 C34.85747508 798.60253712 20.35493052 798.56235118 5.82397461 798.55810547 C2.92267561 798.55794427 0.02201722 798.57164605 -2.87915039 798.59912109 C-80.87385596 799.32530183 -159.87142613 775.02616192 -223.875 730.1875 C-224.95265625 729.445 -226.0303125 728.7025 -227.140625 727.9375 C-235.77647427 721.92772121 -243.93487138 715.40033968 -252.04003906 708.69775391 C-253.71249088 707.32125219 -255.39532507 705.95955864 -257.0859375 704.60546875 C-261.71009956 700.8871357 -266.08903267 697.12388678 -270.2109375 692.85546875 C-271.96533743 691.09695051 -273.79933565 689.48859065 -275.6875 687.875 C-282.67202089 681.83799163 -289.11771341 675.24235516 -295.11328125 668.2265625 C-297.07105739 665.9605777 -299.09728948 663.76606506 -301.125 661.5625 C-359.88683938 596.24950961 -397.75217807 504.2855042 -398.078125 416.15625 C-398.08382507 414.92628296 -398.08952515 413.69631592 -398.09539795 412.42907715 C-398.10480091 409.83049363 -398.11136309 407.23189843 -398.11523438 404.63330078 C-398.1248354 400.75400473 -398.15586156 396.87526351 -398.1875 392.99609375 C-398.25892617 376.19360523 -397.16931525 359.83073362 -394.875 343.1875 C-394.72136993 342.04619629 -394.72136993 342.04619629 -394.56463623 340.88183594 C-394.01906439 336.88491608 -393.38761786 332.91008236 -392.6875 328.9375 C-392.3766748 327.16862427 -392.3766748 327.16862427 -392.05957031 325.36401367 C-381.52722732 267.93101134 -357.86777703 212.00249821 -322.875 165.1875 C-322.21226074 164.29949707 -322.21226074 164.29949707 -321.53613281 163.39355469 C-313.85718659 153.16068601 -305.84456964 143.21360012 -297.2109375 133.76953125 C-295.32764529 131.68783201 -293.49124766 129.58013973 -291.66015625 127.453125 C-287.61046834 122.8158417 -283.3005139 118.46592269 -278.9375 114.125 C-278.17759766 113.36123047 -277.41769531 112.59746094 -276.63476562 111.81054688 C-271.87827423 107.06217929 -266.98476848 102.55165455 -261.875 98.1875 C-260.85391196 97.29846954 -259.8330599 96.40916794 -258.8125 95.51953125 C-237.5981182 77.32368516 -214.33118282 61.68757665 -189.875 48.1875 C-189.19518066 47.80577637 -188.51536133 47.42405273 -187.81494141 47.03076172 C-141.20263122 20.91656806 -87.93951854 6.03132444 -34.875 1.1875 C-33.85535156 1.09251221 -32.83570313 0.99752441 -31.78515625 0.8996582 C-21.19549086 0.02367485 -10.61993462 -0.01243754 0 0 Z M-240.25 234.8125 C-241.20052246 235.07732178 -242.15104492 235.34214355 -243.13037109 235.61499023 C-253.34779429 238.63264284 -262.66238683 243.24842101 -268.34765625 252.61328125 C-273.8291635 263.14480685 -275.44335673 272.23435958 -272.3125 283.75 C-268.80747872 294.14293766 -262.42440994 300.89661071 -252.875 306.1875 C-240.30193848 311.76010298 -228.48992955 308.66273268 -215.83892822 305.25616455 C-177.10719992 294.87857792 -137.88671942 289.50181064 -97.875 287.1875 C-96.89515137 287.12965332 -95.91530273 287.07180664 -94.90576172 287.01220703 C-9.52705841 282.18377558 78.1518047 292.21993056 232.9375 351.75 C244.421512 358.30265712 254.65611525 360.78914249 267.75 357.53515625 C277.29565581 354.29858233 284.63018452 347.32259933 289.1875 338.42578125 C291.44596931 333.03368577 292.51400445 328.28996051 292.5 322.4375 C292.49838867 321.73447754 292.49677734 321.03145508 292.49511719 320.30712891 C292.35444277 314.2981246 291.04439573 309.4769975 288.125 304.1875 C287.2896875 302.640625 287.2896875 302.640625 286.4375 301.0625 C279.67333865 292.6530021 271.22853547 287.64142891 261.75 282.75 C260.4919968 282.09068815 259.23426885 281.43085087 257.97680664 280.77050781 C179.26796019 239.61553055 90.02076003 220.06847126 -240.25 234.8125 Z M-134.875 353.1875 C-136.28833729 353.36679657 -137.7017515 353.54548757 -139.11523438 353.72363281 C-158.57823664 356.20535107 -177.79003417 359.59470792 -196.875 364.1875 C-197.51771851 364.34152283 -198.16043701 364.49554565 -198.82263184 364.65423584 C-202.89808393 365.63434684 -206.96534185 366.64251121 -211.02575684 367.68319702 C-212.93338181 368.17048297 -214.84409105 368.64564512 -216.75488281 369.12036133 C-227.2726865 371.89961389 -236.01688198 375.69648977 -242.46875 384.765625 C-246.82268691 392.26407191 -248.24737503 400.48560852 -246.21875 408.9140625 C-243.4085105 417.70817404 -238.32481437 424.58949566 -230.234375 429.21484375 C-217.18092563 434.59614986 -205.22515099 430.34411248 -192.3125 426.875 C-174.46599972 422.18849586 -156.58317772 418.58487597 -138.3125 416 C-137.22727051 415.8450708 -136.14204102 415.6901416 -135.02392578 415.53051758 C-131.3125373 415.03221173 -127.59759221 414.59154235 -123.875 414.1875 C-123.06829865 414.09922943 -122.26159729 414.01095886 -121.43045044 413.92001343 C-104.71234286 412.15745942 -88.04311197 411.84257424 -71.25170898 411.87182617 C-68.3915219 411.87643338 -65.53176265 411.86960313 -62.67163086 411.85131836 C-41.57334262 411.71794593 -20.84503406 412.84715556 0.125 415.1875 C1.04451447 415.28982941 1.96402893 415.39215881 2.91140747 415.49758911 C7.60146084 416.03464169 12.26956046 416.66772698 16.9375 417.375 C17.61137756 417.47565765 18.28525513 417.57631531 18.97955322 417.68002319 C70.73940541 425.48656596 121.69325579 440.93019009 168.125 465.1875 C168.846875 465.56148926 169.56875 465.93547852 170.3125 466.32080078 C172.58626007 467.50002181 174.85642895 468.68582969 177.125 469.875 C177.80755859 470.23158691 178.49011719 470.58817383 179.19335938 470.95556641 C182.64624647 472.78431146 185.96988375 474.70726904 189.25 476.83203125 C196.89267917 481.64922944 204.25426414 481.9877204 213.125 481.1875 C222.32192706 478.83055964 227.64684484 474.31135017 232.79296875 466.50390625 C236.97676176 459.22827793 237.27794264 451.38817409 236.125 443.1875 C232.30845443 431.0044346 224.18792887 425.44350683 213.5 419.5 C212.57759521 418.98236084 211.65519043 418.46472168 210.70483398 417.93139648 C207.8510255 416.33872543 204.98909517 414.76158322 202.125 413.1875 C201.28630371 412.72150391 200.44760742 412.25550781 199.58349609 411.77539062 C127.36557191 371.82566286 38.23809647 350.28657436 -46.10546875 349.984375 C-47.53739453 349.97735543 -48.96931998 349.97026859 -50.40124512 349.96311951 C-54.95500127 349.94370375 -59.50870664 349.9386854 -64.0625 349.9375 C-64.83762058 349.93705814 -65.61274117 349.93661629 -66.41135025 349.93616104 C-89.36764682 349.92929362 -112.0781846 350.16700959 -134.875 353.1875 Z M-125.85675049 482.9375 C-127.9773512 483.20017821 -130.0993553 483.44727663 -132.22216797 483.69140625 C-150.62446248 485.82215876 -168.81885664 488.76147307 -187 492.3125 C-187.87126526 492.48244476 -188.74253052 492.65238953 -189.64019775 492.82748413 C-209.55255336 495.47719099 -209.55255336 495.47719099 -225.375 506.18359375 C-229.85858433 513.12550698 -230.58117736 518.96923308 -229.875 527.1875 C-228.14729969 534.35140382 -223.92094184 539.1230959 -217.875 543.1875 C-207.63248195 548.07521263 -195.35522993 544.82735018 -184.74884033 542.48132324 C-180.92487836 541.63947728 -177.08949772 540.8532742 -173.25390625 540.06640625 C-172.08018463 539.82493362 -172.08018463 539.82493362 -170.88275146 539.57858276 C-134.87074067 532.2558956 -98.1529975 528.95579678 -61.4375 529 C-59.91906998 529.00140488 -59.91906998 529.00140488 -58.3699646 529.00283813 C-10.8765701 529.09775853 35.03359445 536.02795919 80.125 551.1875 C81.15157715 551.53119629 82.1781543 551.87489258 83.23583984 552.22900391 C105.93685108 559.96058905 128.10501364 570.48882715 148.5949707 582.95068359 C155.5479184 587.17764344 161.67343104 588.49222001 169.6875 586.57421875 C176.19068318 584.32387945 180.42638581 581.00254342 184.125 575.1875 C187.00765081 569.19570439 188.36040083 563.21047193 186.36328125 556.70703125 C183.29275129 548.49063289 179.50137859 543.96365368 171.8125 539.625 C171.07539795 539.20154297 170.3382959 538.77808594 169.57885742 538.34179688 C118.62379143 509.38372659 64.18769491 491.21075445 6.09295654 483.45178223 C4.2331072 483.20201801 2.37455983 482.94261363 0.51611328 482.68261719 C-40.3672418 477.19209571 -84.96411066 477.79739576 -125.85675049 482.9375 Z " fill="#13102F" transform="translate(510.875,111.8125)"/>
</svg>
