<?xml version="1.0" encoding="UTF-8"?>
<svg version="1.1" xmlns="http://www.w3.org/2000/svg" width="1024" height="1024">
<path d="M0 0 C2.08972089 -0.02081101 4.17942522 -0.0433485 6.26910996 -0.06751823 C7.26521078 -0.0787991 8.2613116 -0.09007998 9.2875973 -0.10170269 C10.59614049 -0.11732746 10.59614049 -0.11732746 11.93111891 -0.13326788 C20.28501228 -0.16967123 28.31180811 0.61109659 36.5388819 2.06673145 C37.43243384 2.22453587 38.32598578 2.38234028 39.24661505 2.54492664 C57.66177435 6.15535612 74.7341411 18.19804507 85.48028815 33.4065752 C86.56760106 35.0289151 87.65141616 36.6536098 88.73028815 38.2815752 C89.45216315 39.2715752 90.17403815 40.2615752 90.91778815 41.2815752 C95.81269218 49.38348533 97.31872515 56.54685691 97.24482596 65.94102955 C97.25183811 67.080074 97.25885026 68.21911845 97.2660749 69.39267939 C97.28467533 73.20756569 97.27486375 77.02183951 97.26513922 80.83675098 C97.27040746 83.60031037 97.28165743 86.3638384 97.29260051 89.12738037 C97.31317826 95.13504691 97.31889202 101.14258457 97.31477606 107.15028286 C97.30867019 116.08439038 97.32533704 125.01835553 97.34627457 133.95243535 C97.38494441 150.83925708 97.39621067 167.72603022 97.3985028 184.61289102 C97.40034167 197.65646269 97.40857869 210.70001533 97.4213053 223.74358082 C97.42489555 227.4995562 97.4284548 231.25553161 97.43200481 235.01150703 C97.4333311 236.41217811 97.4333311 236.41217811 97.43468418 237.84114558 C97.45929924 264.10505468 97.47508664 290.36895717 97.47331107 316.6328783 C97.47321759 318.11800602 97.47321759 318.11800602 97.47312223 319.63313631 C97.47278981 324.65116929 97.47239365 329.66920226 97.4719834 334.68723524 C97.47190362 335.6838128 97.47182384 336.68039037 97.47174164 337.70716725 C97.47157989 339.72249082 97.4714127 341.73781439 97.47124008 343.75313796 C97.46878977 375.09911706 97.49880283 406.44492299 97.55353034 437.79085255 C97.61500975 473.01844485 97.64939298 508.24592339 97.64567745 543.47357273 C97.64537893 547.23206298 97.6451841 550.99055321 97.64506018 554.74904346 C97.64501356 555.67445882 97.64496695 556.59987417 97.64491892 557.55333242 C97.64479596 572.42848283 97.67031051 587.3034826 97.70478924 602.17858826 C97.73874315 617.13699709 97.74261788 632.0951862 97.71635196 647.05361229 C97.70160019 655.93282157 97.7088063 664.81136219 97.74812132 673.69050024 C97.77219814 679.63175558 97.76685491 685.57252893 97.73823932 691.51376255 C97.72277459 694.89285562 97.72390112 698.26961415 97.75206873 701.6487782 C97.90319607 721.07220418 95.53750699 737.64259619 81.73028815 752.2815752 C80.96458502 753.1478252 80.1988819 754.0140752 79.40997565 754.9065752 C67.6803271 767.51157066 50.49181244 778.7240494 32.84571326 779.43895245 C31.27217884 779.4592387 29.69856982 779.47414827 28.12494147 779.48491383 C27.24473318 779.49461228 26.36452489 779.50431074 25.45764363 779.51430309 C22.4502446 779.54578902 19.4428361 779.56987368 16.43536627 779.59358692 C14.21069418 779.61410262 11.98602382 779.63480668 9.76135504 779.65567875 C2.77888826 779.71860354 -4.20364309 779.77083675 -11.18620884 779.82125884 C-13.24552857 779.83631437 -15.30484362 779.85189774 -17.36415803 779.86766291 C-112.15903756 780.59254124 -206.95916854 780.43303672 -309.94252145 780.41103706 C-330.6830972 780.40647542 -351.42366744 780.40736453 -372.1642431 780.4119463 C-396.59926985 780.41732704 -421.03429284 780.41939541 -445.46932018 780.41633403 C-448.07938421 780.41601563 -450.68944824 780.41570126 -453.29951227 780.41539097 C-454.58202689 780.41523669 -455.86454151 780.41508242 -457.18592021 780.41492347 C-466.09344448 780.41407075 -475.0009666 780.41549284 -483.90849054 780.41787052 C-494.73928618 780.42070021 -505.57007459 780.41986241 -516.40086943 780.41458978 C-521.89140263 780.41200226 -527.38192386 780.41086174 -532.87245691 780.41423893 C-553.14579517 780.4254176 -573.41985074 780.38205911 -593.69032377 780.00940143 C-595.49221218 779.97770664 -597.29418461 779.95040921 -599.09621269 779.92802121 C-617.21399533 779.69072379 -635.17611022 776.6807171 -649.26971185 764.2815752 C-650.1926806 763.51200489 -651.11564935 762.74243458 -652.06658685 761.94954395 C-665.31438643 750.63105623 -676.6768727 735.22596878 -678.57896948 717.38004702 C-679.21714741 708.44453894 -679.43798074 699.54764465 -679.47305048 690.59171009 C-679.4824721 689.05389689 -679.49228151 687.51608602 -679.50243974 685.9782775 C-679.52890521 681.78392572 -679.54951033 677.58956369 -679.56891686 673.39517406 C-679.58633836 669.7803392 -679.60706246 666.16552607 -679.62776205 662.55070873 C-679.69032112 651.61366842 -679.74368195 640.67659454 -679.79467762 629.73949504 C-679.82434797 623.38850728 -679.85602568 617.03753031 -679.88784158 610.686553 C-680.36518917 514.75720508 -680.42490422 418.82812987 -680.39917371 322.89778806 C-680.39460737 305.53425979 -680.39556717 288.17073816 -680.40008295 270.80720997 C-680.40545456 250.14585905 -680.4075387 229.48451199 -680.40447068 208.82316047 C-680.40415236 206.62254449 -680.40383799 204.42192851 -680.40352762 202.22131252 C-680.40337334 201.14086184 -680.40321907 200.06041116 -680.40306012 198.94721955 C-680.40221017 191.47292813 -680.40362203 183.99863928 -680.40600717 176.52434826 C-680.40883024 167.49138815 -680.40801028 158.45843672 -680.40272643 149.42547759 C-680.40013863 144.85700699 -680.39899975 140.28855079 -680.40237558 135.72008038 C-680.41353971 119.04761192 -680.36425624 102.37958769 -679.93230675 85.71179119 C-679.89475873 84.25789193 -679.85942426 82.80393339 -679.82657351 81.34992041 C-679.42572954 64.22299472 -676.05999068 50.0366861 -667.26971185 35.2815752 C-666.60971185 35.2815752 -665.94971185 35.2815752 -665.26971185 35.2815752 C-665.06346185 34.58805958 -664.85721185 33.89454395 -664.64471185 33.1800127 C-662.82458154 29.34326073 -660.28668206 26.84861637 -657.26971185 23.9065752 C-656.68592767 23.33294239 -656.10214349 22.75930958 -655.50066888 22.16829395 C-643.60475979 10.69201086 -629.83179026 3.2483124 -613.15806329 2.66841602 C-612.18326239 2.63089112 -611.20846149 2.59336621 -610.20412117 2.55470419 C-592.60265873 1.97329675 -574.9768128 2.11090561 -557.36819983 2.09562564 C-551.68103174 2.08960974 -545.99387472 2.07795612 -540.30671442 2.06699085 C-530.45643986 2.04871883 -520.606165 2.03383842 -510.75588167 2.02121449 C-496.41427527 2.00275196 -482.07268436 1.9780832 -467.73109033 1.95184058 C-461.00540196 1.93955888 -454.27971314 1.92754067 -447.5540241 1.91563129 C-446.88069916 1.91443877 -446.20737422 1.91324625 -445.5136455 1.91201759 C-429.51249726 1.88375219 -413.51134441 1.85854831 -397.51019037 1.8338213 C-396.81120209 1.8327401 -396.11221382 1.8316589 -395.39204408 1.83054494 C-387.61266761 1.81851377 -379.83329104 1.80654327 -372.05391443 1.79459858 C-358.04422218 1.77308348 -344.0345303 1.75132973 -330.02483881 1.72932911 C-329.3367589 1.72824964 -328.64867899 1.72717018 -327.93974817 1.726058 C-312.10120512 1.70119513 -296.26266392 1.67549471 -280.42412603 1.64751911 C-279.41297636 1.64573373 -279.41297636 1.64573373 -278.38139942 1.64391229 C-271.63141486 1.63197779 -264.88143053 1.61991606 -258.13144654 1.60766208 C-244.48360702 1.58291615 -230.83576937 1.55985211 -217.18791902 1.54193592 C-158.58068563 1.46451797 -99.98312387 1.20164751 -41.38025945 0.45761538 C-27.58704462 0.28252628 -13.79369467 0.13252539 0 0 Z M-253.9220556 216.71077442 C-274.60348137 240.81662467 -280.1597105 269.85898615 -278.03387201 300.7034502 C-277.79668364 303.56482354 -277.54492822 306.42363212 -277.26971185 309.2815752 C-316.6269051 307.20322725 -356.967904 298.31961633 -392.26971185 280.2815752 C-393.06586908 279.88067677 -393.86202631 279.47977833 -394.68230951 279.06673145 C-419.79051432 266.38800507 -442.38428125 251.16931961 -463.26971185 232.2815752 C-463.86042474 231.75257618 -464.45113763 231.22357716 -465.05975091 230.67854786 C-470.83310409 225.5021651 -476.51641704 220.32891345 -481.50408685 214.37141895 C-483.83580504 211.61153127 -486.27083687 208.94868847 -488.70721185 206.2815752 C-489.57217279 205.3328252 -490.43713373 204.3840752 -491.3283056 203.4065752 C-491.96896966 202.7053252 -492.60963373 202.0040752 -493.26971185 201.2815752 C-506.78255535 217.64133824 -507.62279172 244.27174335 -506.26971185 264.2815752 C-503.59610227 291.93143636 -488.21343837 317.08953505 -467.0939306 334.7112627 C-465.04745423 336.47289761 -463.15960457 338.35413495 -461.26971185 340.2815752 C-477.66622547 338.19597937 -493.0588691 334.97135617 -508.26971185 328.2815752 C-507.38946479 353.58867814 -498.2890224 378.3776732 -481.26971185 397.2815752 C-480.60584466 398.03954395 -479.94197748 398.7975127 -479.2579931 399.5784502 C-465.01203649 414.88267787 -445.61577915 423.42251498 -426.26971185 430.2815752 C-436.88170519 437.35623743 -458.29044815 434.99289859 -470.26971185 433.2815752 C-466.50477335 445.8313702 -460.54480729 456.14660489 -452.26971185 466.2815752 C-451.51947748 467.2097002 -450.7692431 468.1378252 -449.99627435 469.0940752 C-430.35334548 492.06520798 -404.01230538 500.33882174 -375.26971185 505.2815752 C-399.75892813 530.46429141 -439.41097594 543.13907017 -473.26971185 548.2815752 C-474.01124506 548.39871876 -474.75277826 548.51586231 -475.51678216 548.63655567 C-491.63272626 551.08045616 -508.01770434 550.47725557 -524.26971185 550.2815752 C-521.19322963 552.72848581 -518.0177204 554.57352216 -514.53533685 556.3909502 C-513.41280511 556.97715137 -512.29027338 557.56335255 -511.13372552 558.16731739 C-509.92950828 558.78961595 -508.72482659 559.41101648 -507.51971185 560.0315752 C-506.90624902 560.34759693 -506.29278619 560.66361866 -505.66073358 560.9892168 C-473.9530828 577.28669579 -440.71201301 587.94646115 -405.26971185 592.2815752 C-404.4306933 592.38598927 -403.59167474 592.49040333 -402.72723138 592.59798145 C-352.37359248 598.62401815 -299.07763303 591.9348718 -252.26971185 572.2815752 C-251.43778314 571.93368946 -250.60585443 571.58580372 -249.74871576 571.22737598 C-211.03796957 554.85119391 -174.5964848 529.4698527 -147.26971185 497.2815752 C-146.51947748 496.41919239 -145.7692431 495.55680958 -144.99627435 494.66829395 C-133.94458754 481.73889337 -123.72310001 468.02786806 -115.3571142 453.2034502 C-114.20517815 451.16751834 -113.02889778 449.14676785 -111.8517431 447.1253252 C-88.17671603 406.01573699 -72.92775546 358.56163875 -72.1361059 310.89703846 C-72.07908448 307.75172177 -71.98285109 304.6079459 -71.88671625 301.46361256 C-71.85077139 299.90093713 -71.83450083 298.33766829 -71.8392309 296.77458668 C-71.87323177 284.23482863 -71.87323177 284.23482863 -67.88543451 279.37727833 C-65.11287932 277.10650318 -62.2953797 275.19521631 -59.26971185 273.2815752 C-47.88627975 263.76986484 -37.01324041 253.13171001 -27.83221185 241.4690752 C-27.13237176 240.58022633 -27.13237176 240.58022633 -26.41839349 239.67342091 C-24.01626265 236.80241896 -24.01626265 236.80241896 -23.26971185 233.2815752 C-28.35273811 233.9571673 -32.93399799 235.41090015 -37.76971185 237.0315752 C-45.09277784 239.41561024 -52.44604542 241.39415289 -59.95721185 243.0940752 C-60.86471185 243.30064747 -61.77221185 243.50721973 -62.70721185 243.72005177 C-67.88357484 244.8607688 -72.99980427 245.71102642 -78.26971185 246.2815752 C-75.05599882 242.97571269 -71.76929429 240.00214291 -68.14471185 237.1565752 C-53.38092895 225.11139211 -42.427896 211.00183526 -35.26971185 193.2815752 C-35.59971185 192.6215752 -35.92971185 191.9615752 -36.26971185 191.2815752 C-37.38603998 191.8384502 -38.5023681 192.3953252 -39.65252435 192.9690752 C-55.21406337 200.60825359 -71.15149115 206.80783052 -87.89471185 211.3440752 C-88.68232904 211.56031544 -89.46994623 211.77655567 -90.2814306 211.99934864 C-93.9891582 212.94916775 -96.63015073 213.51793814 -100.26971185 212.2815752 C-102.1017431 210.78548145 -102.1017431 210.78548145 -104.08221185 208.8440752 C-124.57630027 190.1277064 -151.30279948 180.3344648 -179.05096185 181.02766895 C-207.73474448 182.37137723 -234.73772661 195.39559552 -253.9220556 216.71077442 Z " fill="#13102F" transform="translate(803.2697118520737,121.7184247970581)"/>
</svg>
