<svg xmlns="http://www.w3.org/2000/svg" width="1080" height="1080" viewBox="0 0 1080 1080" version="1.1"><path d="" stroke="none" fill="#b80464" fill-rule="evenodd"/><path d="M 792.500 150.054 C 782.600 150.437, 650.140 150.807, 498.144 150.875 C 248.953 150.988, 221.185 151.156, 215.644 152.591 C 207.760 154.633, 197.335 159.662, 193.613 163.220 C 192.012 164.749, 190.312 166, 189.833 166 C 188.472 166, 176.663 178.221, 175.081 181.268 C 174.301 182.770, 173.288 184, 172.831 184 C 172.374 184, 172 184.620, 172 185.378 C 172 186.135, 171.347 187.297, 170.548 187.960 C 166.527 191.298, 162.712 202.715, 160.009 219.500 C 158.362 229.732, 159.151 855.877, 160.822 864.877 C 162.948 876.322, 168.238 888.579, 173.479 894.206 C 174.866 895.695, 176 897.281, 176 897.731 C 176 898.836, 189.742 912.186, 193.500 914.733 C 198.577 918.173, 203.990 921, 205.500 921 C 206.292 921, 208.423 921.834, 210.237 922.852 C 213.878 924.897, 216.881 925.609, 227.973 927.059 C 232.740 927.682, 351.365 927.939, 555.473 927.768 C 826.049 927.541, 876.041 927.285, 879 926.109 C 880.925 925.343, 884.230 923.881, 886.345 922.859 C 888.459 921.836, 890.828 921, 891.608 921 C 893.179 921, 896.694 919.168, 898.758 917.275 C 899.492 916.601, 901.632 915.319, 903.513 914.427 C 907.005 912.770, 923 897.858, 923 896.259 C 923 895.774, 923.787 894.504, 924.750 893.438 C 926.692 891.286, 931 883.329, 931 881.895 C 931 881.391, 932.013 878.846, 933.250 876.239 L 935.500 871.500 935.500 538 L 935.500 204.500 933.250 200.720 C 932.013 198.640, 931 196.053, 931 194.970 C 931 193.886, 930.634 193, 930.187 193 C 929.739 193, 928.751 191.415, 927.992 189.478 C 927.232 187.542, 925.798 185.222, 924.805 184.323 C 923.812 183.425, 923 182.256, 923 181.725 C 923 180.516, 908.946 166, 907.774 166 C 907.300 166, 905.695 164.863, 904.206 163.474 C 901.119 160.593, 889.447 154.683, 883.500 152.990 C 881.300 152.364, 876.575 151.418, 873 150.888 C 869.425 150.358, 864.759 149.664, 862.631 149.346 C 859.933 148.942, 858.500 149.181, 857.896 150.134 C 857.264 151.132, 857.026 151.163, 857.015 150.250 C 856.998 148.860, 825.810 148.765, 792.500 150.054 M 657 329.206 C 637.403 331.410, 629.416 333.692, 614.771 341.271 C 592.759 352.662, 576.335 370.864, 567.065 394.137 C 561.406 408.347, 558.602 427.151, 560.077 441 C 560.517 445.125, 560.904 450.413, 560.938 452.750 L 561 457 554.551 457 C 532.446 457, 493.580 448.022, 463 435.851 C 423.973 420.318, 383.525 391.705, 354.487 359.086 L 344.688 348.080 342.253 353.290 C 334.991 368.823, 331.901 382.916, 331.901 400.500 C 331.901 434.079, 344.970 460.729, 373 484.308 L 377.500 488.093 369.922 487.520 C 360.004 486.771, 345.215 482.820, 336.687 478.641 L 329.873 475.303 330.524 481.901 C 332.672 503.670, 339.607 522.743, 351.088 538.462 C 363.092 554.895, 384.438 569.556, 405.749 576.002 C 409.736 577.208, 412.781 578.545, 412.516 578.974 C 410.768 581.803, 384.841 583.928, 374.059 582.126 C 370.516 581.534, 367.514 581.152, 367.388 581.278 C 367.262 581.404, 368.484 584.612, 370.103 588.407 C 380.236 612.160, 397.130 630.044, 420.500 641.758 C 430.849 646.945, 439.164 649.465, 452.888 651.571 C 458.999 652.510, 464 653.559, 464 653.903 C 464 654.248, 460.512 657.029, 456.250 660.085 C 419.118 686.703, 372.317 700.567, 325.791 698.732 L 312.082 698.192 317.291 701.096 C 328.057 707.099, 350.254 718.115, 358.229 721.411 C 385.583 732.719, 415.962 739.661, 448.500 742.040 C 467.540 743.432, 471.846 743.433, 492 742.052 C 537.335 738.947, 573.066 729.136, 610.958 709.388 C 677.090 674.922, 727.528 613.940, 752.712 538 C 761.560 511.321, 765.441 488.948, 767.159 454.739 L 768.351 430.978 776.426 424.770 C 787.234 416.459, 803.088 400.325, 811.719 388.851 C 815.588 383.708, 818.684 379.413, 818.599 379.306 C 818.514 379.199, 814.259 380.683, 809.144 382.605 C 793.434 388.505, 761 395.980, 761 393.699 C 761 393.392, 765.198 389.985, 770.328 386.129 C 780.034 378.834, 785.781 372.770, 792.855 362.357 C 796.841 356.492, 805.541 339.184, 804.836 338.524 C 804.651 338.351, 799.100 340.855, 792.500 344.088 C 780.348 350.042, 763.047 356.268, 748.555 359.903 L 740.610 361.896 736.405 358.019 C 723.318 345.956, 703.853 335.375, 688.500 331.977 C 678.712 329.811, 663.510 328.474, 657 329.206" stroke="none" fill="#b40464" fill-rule="evenodd"/></svg>