<?xml version="1.0" encoding="UTF-8"?>
<svg version="1.1" xmlns="http://www.w3.org/2000/svg" width="1024" height="1024">
<path d="M0 0 C5.49227962 0.00458449 10.98454728 -0.00248855 16.4768244 -0.00795984 C27.19765458 -0.01679259 37.91845654 -0.01495931 48.63928776 -0.00913456 C57.36310563 -0.00459353 66.08691567 -0.00401565 74.81073439 -0.00618219 C76.05858171 -0.00648866 77.30642903 -0.00679513 78.59208991 -0.00711088 C81.12811875 -0.00775042 83.66414759 -0.00839884 86.20017643 -0.00905606 C109.23439578 -0.01457984 132.26860273 -0.00887886 155.30281904 0.00162913 C176.25967849 0.01111685 197.21651362 0.01026966 218.17337286 0.00070715 C241.80291746 -0.01003925 265.43245171 -0.01419118 289.06199902 -0.00806832 C291.58832105 -0.00743132 294.11464307 -0.00680257 296.6409651 -0.00618219 C297.88353086 -0.00587364 299.12609661 -0.00556509 300.40631587 -0.00524719 C309.10536872 -0.0035302 317.80441285 -0.00641372 326.50346434 -0.0111413 C337.12521131 -0.01678763 347.74692877 -0.0151557 358.36867242 -0.00457981 C363.77386239 0.00062708 369.17900342 0.00282027 374.58419287 -0.00387812 C397.07680991 -0.02954591 419.37790711 0.20414574 441.79275763 2.26144934 C441.79275763 2.92144934 441.79275763 3.58144934 441.79275763 4.26144934 C445.75275763 4.59144934 449.71275763 4.92144934 453.79275763 5.26144934 C453.79275763 5.92144934 453.79275763 6.58144934 453.79275763 7.26144934 C455.64900763 7.35426184 455.64900763 7.35426184 457.54275763 7.44894934 C463.78308116 8.11260279 469.11456932 10.73781009 474.79275763 13.26144934 C475.78275763 13.59144934 476.77275763 13.92144934 477.79275763 14.26144934 C477.79275763 14.92144934 477.79275763 15.58144934 477.79275763 16.26144934 C478.65900763 16.36457434 479.52525763 16.46769934 480.41775763 16.57394934 C483.95958886 17.29543348 486.63587805 18.53268195 489.79275763 20.26144934 C489.79275763 20.92144934 489.79275763 21.58144934 489.79275763 22.26144934 C492.26775763 22.75644934 492.26775763 22.75644934 494.79275763 23.26144934 C494.79275763 23.92144934 494.79275763 24.58144934 494.79275763 25.26144934 C497.26775763 25.75644934 497.26775763 25.75644934 499.79275763 26.26144934 C499.79275763 26.92144934 499.79275763 27.58144934 499.79275763 28.26144934 C501.11275763 28.59144934 502.43275763 28.92144934 503.79275763 29.26144934 C503.79275763 29.92144934 503.79275763 30.58144934 503.79275763 31.26144934 C505.11275763 31.59144934 506.43275763 31.92144934 507.79275763 32.26144934 C507.79275763 32.92144934 507.79275763 33.58144934 507.79275763 34.26144934 C509.11275763 34.59144934 510.43275763 34.92144934 511.79275763 35.26144934 C511.79275763 35.92144934 511.79275763 36.58144934 511.79275763 37.26144934 C512.78275763 37.59144934 513.77275763 37.92144934 514.79275763 38.26144934 C514.79275763 38.92144934 514.79275763 39.58144934 514.79275763 40.26144934 C515.68994513 40.69457434 515.68994513 40.69457434 516.60525763 41.13644934 C518.79275763 42.26144934 518.79275763 42.26144934 521.79275763 44.26144934 C521.79275763 44.92144934 521.79275763 45.58144934 521.79275763 46.26144934 C522.65900763 46.60176184 522.65900763 46.60176184 523.54275763 46.94894934 C526.39015572 48.60993156 527.91342956 50.57669495 529.79275763 53.26144934 C529.79275763 53.92144934 529.79275763 54.58144934 529.79275763 55.26144934 C530.78275763 55.59144934 531.77275763 55.92144934 532.79275763 56.26144934 C532.79275763 56.92144934 532.79275763 57.58144934 532.79275763 58.26144934 C533.78275763 58.59144934 534.77275763 58.92144934 535.79275763 59.26144934 C536.83065345 60.90478438 537.82843687 62.57388801 538.79275763 64.26144934 C539.62807013 65.06582434 539.62807013 65.06582434 540.48025763 65.88644934 C541.79275763 67.26144934 541.79275763 67.26144934 541.79275763 70.26144934 C542.78275763 70.59144934 543.77275763 70.92144934 544.79275763 71.26144934 C544.79275763 72.25144934 544.79275763 73.24144934 544.79275763 74.26144934 C545.45275763 74.26144934 546.11275763 74.26144934 546.79275763 74.26144934 C547.12275763 75.91144934 547.45275763 77.56144934 547.79275763 79.26144934 C548.45275763 79.26144934 549.11275763 79.26144934 549.79275763 79.26144934 C553.3722716 84.14260475 556.79275763 91.1534006 556.79275763 97.26144934 C557.45275763 97.26144934 558.11275763 97.26144934 558.79275763 97.26144934 C559.12275763 99.57144934 559.45275763 101.88144934 559.79275763 104.26144934 C560.45275763 104.26144934 561.11275763 104.26144934 561.79275763 104.26144934 C562.12275763 106.90144934 562.45275763 109.54144934 562.79275763 112.26144934 C563.45275763 112.26144934 564.11275763 112.26144934 564.79275763 112.26144934 C565.12275763 116.22144934 565.45275763 120.18144934 565.79275763 124.26144934 C566.45275763 124.26144934 567.11275763 124.26144934 567.79275763 124.26144934 C570.109167 138.24756783 570.07649439 152.09891957 570.05154669 166.24191809 C570.05426126 168.83897515 570.05782479 171.43603145 570.06216681 174.0330863 C570.07100167 180.3195166 570.06916539 186.6058988 570.06334153 192.89233088 C570.05880158 198.00718546 570.05822215 203.12202667 570.06038916 208.23688269 C570.06069563 208.96834137 570.06100209 209.69980006 570.06131785 210.45342416 C570.06195738 211.93994991 570.06260581 213.42647567 570.06326303 214.91300142 C570.06894902 228.81118313 570.06243573 242.70933833 570.0516623 256.60751569 C570.04272837 268.50031152 570.0442809 280.39306828 570.05349982 292.2858634 C570.06423317 306.13857969 570.06839986 319.99127284 570.06227529 333.84399271 C570.06163828 335.32466713 570.06100953 336.80534156 570.06038916 338.28601599 C570.06008061 339.01429812 570.05977206 339.74258026 570.05945416 340.49293154 C570.05773639 345.59419246 570.06062237 350.69543853 570.06534827 355.79669714 C570.0715842 362.67837081 570.06706521 369.55997003 570.05555975 376.44163656 C570.05293061 378.95696787 570.05364814 381.47230541 570.05808508 383.98763418 C570.07875612 396.90368556 569.90722918 409.49459988 567.79275763 422.26144934 C567.13275763 422.26144934 566.47275763 422.26144934 565.79275763 422.26144934 C565.46275763 426.22144934 565.13275763 430.18144934 564.79275763 434.26144934 C564.13275763 434.26144934 563.47275763 434.26144934 562.79275763 434.26144934 C562.46275763 436.90144934 562.13275763 439.54144934 561.79275763 442.26144934 C561.13275763 442.26144934 560.47275763 442.26144934 559.79275763 442.26144934 C559.46275763 444.57144934 559.13275763 446.88144934 558.79275763 449.26144934 C558.13275763 449.26144934 557.47275763 449.26144934 556.79275763 449.26144934 C556.71025763 450.08644934 556.62775763 450.91144934 556.54275763 451.76144934 C555.62459075 456.04622813 553.84902108 459.42826389 551.79275763 463.26144934 C551.12238212 464.59292179 550.45467091 465.92574988 549.79275763 467.26144934 C549.13275763 467.26144934 548.47275763 467.26144934 547.79275763 467.26144934 C547.46275763 468.91144934 547.13275763 470.56144934 546.79275763 472.26144934 C546.13275763 472.26144934 545.47275763 472.26144934 544.79275763 472.26144934 C544.46275763 473.58144934 544.13275763 474.90144934 543.79275763 476.26144934 C543.13275763 476.26144934 542.47275763 476.26144934 541.79275763 476.26144934 C541.71025763 477.00394934 541.62775763 477.74644934 541.54275763 478.51144934 C540.64176344 481.8150947 539.29351175 482.98803651 536.79275763 485.26144934 C536.13275763 486.25144934 535.47275763 487.24144934 534.79275763 488.26144934 C534.13275763 488.26144934 533.47275763 488.26144934 532.79275763 488.26144934 C532.46275763 489.25144934 532.13275763 490.24144934 531.79275763 491.26144934 C531.13275763 491.26144934 530.47275763 491.26144934 529.79275763 491.26144934 C529.54525763 492.00394934 529.29775763 492.74644934 529.04275763 493.51144934 C527.68810724 496.49168021 526.28260353 498.16064186 523.79275763 500.26144934 C523.13275763 500.26144934 522.47275763 500.26144934 521.79275763 500.26144934 C521.79275763 500.92144934 521.79275763 501.58144934 521.79275763 502.26144934 C517.3221694 506.26144934 517.3221694 506.26144934 514.79275763 506.26144934 C514.46275763 507.25144934 514.13275763 508.24144934 513.79275763 509.26144934 C513.13275763 509.26144934 512.47275763 509.26144934 511.79275763 509.26144934 C511.79275763 509.92144934 511.79275763 510.58144934 511.79275763 511.26144934 C510.47275763 511.59144934 509.15275763 511.92144934 507.79275763 512.26144934 C507.79275763 512.92144934 507.79275763 513.58144934 507.79275763 514.26144934 C506.47275763 514.59144934 505.15275763 514.92144934 503.79275763 515.26144934 C503.79275763 515.92144934 503.79275763 516.58144934 503.79275763 517.26144934 C502.47275763 517.59144934 501.15275763 517.92144934 499.79275763 518.26144934 C499.79275763 518.92144934 499.79275763 519.58144934 499.79275763 520.26144934 C498.14275763 520.59144934 496.49275763 520.92144934 494.79275763 521.26144934 C494.79275763 521.92144934 494.79275763 522.58144934 494.79275763 523.26144934 C493.14275763 523.59144934 491.49275763 523.92144934 489.79275763 524.26144934 C489.79275763 524.92144934 489.79275763 525.58144934 489.79275763 526.26144934 C488.35846762 526.93499433 486.92018706 527.60004634 485.48025763 528.26144934 C484.67974982 528.63269934 483.87924201 529.00394934 483.05447638 529.38644934 C480.79275763 530.26144934 480.79275763 530.26144934 477.79275763 530.26144934 C477.79275763 530.92144934 477.79275763 531.58144934 477.79275763 532.26144934 C476.84014044 532.59918371 475.88752326 532.93691809 474.90603888 533.28488684 C473.63909353 533.7353563 472.37216747 534.18588 471.10525763 534.63644934 C469.86389044 535.07730871 468.62252326 535.51816809 467.34353888 535.97238684 C465.21675399 536.74448696 463.10075406 537.54913621 461.01150763 538.41769934 C458.47816237 539.38108415 456.48069241 539.41504561 453.79275763 539.26144934 C453.79275763 539.92144934 453.79275763 540.58144934 453.79275763 541.26144934 C449.83275763 541.59144934 445.87275763 541.92144934 441.79275763 542.26144934 C441.79275763 542.92144934 441.79275763 543.58144934 441.79275763 544.26144934 C418.34257832 546.41350144 394.99956261 546.5520696 371.46944964 546.52289867 C365.97786928 546.51831111 360.48630083 546.52538868 354.99472296 546.53085852 C344.277372 546.53968791 333.56004927 546.53785957 322.84269726 546.53203323 C314.12176372 546.52749109 305.40083801 546.52691479 296.67990363 546.52908087 C294.80833588 546.52954057 294.80833588 546.52954057 292.89895868 546.53000955 C290.36317138 546.53064909 287.82738407 546.53129752 285.29159677 546.53195474 C262.26376403 546.53747752 239.2359437 546.53177908 216.208114 546.52126954 C195.25780474 546.51178077 174.3075198 546.51263013 153.35721076 546.52219152 C129.73241993 546.53293789 106.10763944 546.53708998 82.4828459 546.530967 C79.95710115 546.53032999 77.43135639 546.52970125 74.90561163 546.52908087 C73.66334087 546.52877232 72.4210701 546.52846377 71.14115477 546.52814586 C62.44459504 546.52642895 53.74804403 546.52931222 45.05148566 546.53403997 C34.43342271 546.53968621 23.81538927 546.53805452 13.19732964 546.52747849 C7.79415798 546.52227164 2.39103528 546.52007833 -3.01213586 546.52677679 C-25.50030167 546.5524494 -47.79681352 546.31808225 -70.20724237 544.26144934 C-70.20724237 543.60144934 -70.20724237 542.94144934 -70.20724237 542.26144934 C-74.16724237 541.93144934 -78.12724237 541.60144934 -82.20724237 541.26144934 C-82.20724237 540.60144934 -82.20724237 539.94144934 -82.20724237 539.26144934 C-83.44474237 539.19957434 -84.68224237 539.13769934 -85.95724237 539.07394934 C-92.1975659 538.41029588 -97.52905406 535.78508858 -103.20724237 533.26144934 C-104.19724237 532.93144934 -105.18724237 532.60144934 -106.20724237 532.26144934 C-106.20724237 531.60144934 -106.20724237 530.94144934 -106.20724237 530.26144934 C-107.50661737 530.10676184 -107.50661737 530.10676184 -108.83224237 529.94894934 C-112.3740736 529.2274652 -115.05036279 527.99021672 -118.20724237 526.26144934 C-118.20724237 525.60144934 -118.20724237 524.94144934 -118.20724237 524.26144934 C-119.85724237 523.93144934 -121.50724237 523.60144934 -123.20724237 523.26144934 C-123.20724237 522.60144934 -123.20724237 521.94144934 -123.20724237 521.26144934 C-124.85724237 520.93144934 -126.50724237 520.60144934 -128.20724237 520.26144934 C-128.20724237 519.60144934 -128.20724237 518.94144934 -128.20724237 518.26144934 C-129.52724237 517.93144934 -130.84724237 517.60144934 -132.20724237 517.26144934 C-132.20724237 516.60144934 -132.20724237 515.94144934 -132.20724237 515.26144934 C-133.52724237 514.93144934 -134.84724237 514.60144934 -136.20724237 514.26144934 C-136.20724237 513.60144934 -136.20724237 512.94144934 -136.20724237 512.26144934 C-137.52724237 511.93144934 -138.84724237 511.60144934 -140.20724237 511.26144934 C-140.20724237 510.60144934 -140.20724237 509.94144934 -140.20724237 509.26144934 C-141.19724237 508.93144934 -142.18724237 508.60144934 -143.20724237 508.26144934 C-143.20724237 507.60144934 -143.20724237 506.94144934 -143.20724237 506.26144934 C-143.80536737 505.97269934 -144.40349237 505.68394934 -145.01974237 505.38644934 C-147.20724237 504.26144934 -147.20724237 504.26144934 -150.20724237 502.26144934 C-150.20724237 501.60144934 -150.20724237 500.94144934 -150.20724237 500.26144934 C-151.07349237 499.92113684 -151.07349237 499.92113684 -151.95724237 499.57394934 C-154.80464046 497.91296712 -156.3279143 495.94620373 -158.20724237 493.26144934 C-158.20724237 492.60144934 -158.20724237 491.94144934 -158.20724237 491.26144934 C-159.19724237 490.93144934 -160.18724237 490.60144934 -161.20724237 490.26144934 C-161.20724237 489.60144934 -161.20724237 488.94144934 -161.20724237 488.26144934 C-162.19724237 487.93144934 -163.18724237 487.60144934 -164.20724237 487.26144934 C-165.23737514 485.6132369 -166.23838865 483.94641232 -167.20724237 482.26144934 C-167.86724237 481.93144934 -168.52724237 481.60144934 -169.20724237 481.26144934 C-169.83224237 478.69894934 -169.83224237 478.69894934 -170.20724237 476.26144934 C-171.19724237 475.93144934 -172.18724237 475.60144934 -173.20724237 475.26144934 C-173.20724237 474.27144934 -173.20724237 473.28144934 -173.20724237 472.26144934 C-173.86724237 472.26144934 -174.52724237 472.26144934 -175.20724237 472.26144934 C-175.53724237 470.61144934 -175.86724237 468.96144934 -176.20724237 467.26144934 C-176.86724237 467.26144934 -177.52724237 467.26144934 -178.20724237 467.26144934 C-181.78675634 462.38029392 -185.20724237 455.36949808 -185.20724237 449.26144934 C-185.86724237 449.26144934 -186.52724237 449.26144934 -187.20724237 449.26144934 C-187.53724237 446.95144934 -187.86724237 444.64144934 -188.20724237 442.26144934 C-188.86724237 442.26144934 -189.52724237 442.26144934 -190.20724237 442.26144934 C-190.53724237 439.62144934 -190.86724237 436.98144934 -191.20724237 434.26144934 C-191.86724237 434.26144934 -192.52724237 434.26144934 -193.20724237 434.26144934 C-193.53724237 430.30144934 -193.86724237 426.34144934 -194.20724237 422.26144934 C-194.86724237 422.26144934 -195.52724237 422.26144934 -196.20724237 422.26144934 C-198.52365173 408.27533084 -198.49097913 394.42397911 -198.46603143 380.28098059 C-198.468746 377.68392352 -198.47230953 375.08686723 -198.47665155 372.48981237 C-198.48548641 366.20338208 -198.48365013 359.91699987 -198.47782627 353.63056779 C-198.47328632 348.51571322 -198.47270689 343.400872 -198.4748739 338.28601599 C-198.47518037 337.5545573 -198.47548683 336.82309862 -198.47580259 336.06947452 C-198.47644212 334.58294876 -198.47709055 333.09642301 -198.47774777 331.60989726 C-198.48343376 317.71171555 -198.47692046 303.81356034 -198.46614704 289.91538298 C-198.45721311 278.02258716 -198.45876564 266.12983039 -198.46798456 254.23703527 C-198.47871791 240.38431898 -198.48288459 226.53162584 -198.47676003 212.67890596 C-198.47612302 211.19823154 -198.47549427 209.71755712 -198.4748739 208.23688269 C-198.47456535 207.50860055 -198.4742568 206.78031842 -198.4739389 206.02996713 C-198.47222113 200.92870622 -198.47510711 195.82746015 -198.47983301 190.72620153 C-198.48606894 183.84452786 -198.48154995 176.96292864 -198.47004449 170.08126211 C-198.46741535 167.5659308 -198.46813288 165.05059326 -198.47256982 162.53526449 C-198.49324086 149.61921311 -198.32171392 137.02829879 -196.20724237 124.26144934 C-195.54724237 124.26144934 -194.88724237 124.26144934 -194.20724237 124.26144934 C-193.87724237 120.30144934 -193.54724237 116.34144934 -193.20724237 112.26144934 C-192.54724237 112.26144934 -191.88724237 112.26144934 -191.20724237 112.26144934 C-190.87724237 109.62144934 -190.54724237 106.98144934 -190.20724237 104.26144934 C-189.54724237 104.26144934 -188.88724237 104.26144934 -188.20724237 104.26144934 C-187.87724237 101.95144934 -187.54724237 99.64144934 -187.20724237 97.26144934 C-186.54724237 97.26144934 -185.88724237 97.26144934 -185.20724237 97.26144934 C-185.12474237 96.43644934 -185.04224237 95.61144934 -184.95724237 94.76144934 C-184.03907549 90.47667054 -182.26350582 87.09463479 -180.20724237 83.26144934 C-179.53686686 81.92997688 -178.86915565 80.59714879 -178.20724237 79.26144934 C-177.54724237 79.26144934 -176.88724237 79.26144934 -176.20724237 79.26144934 C-175.87724237 77.61144934 -175.54724237 75.96144934 -175.20724237 74.26144934 C-174.54724237 74.26144934 -173.88724237 74.26144934 -173.20724237 74.26144934 C-172.87724237 72.94144934 -172.54724237 71.62144934 -172.20724237 70.26144934 C-171.54724237 70.26144934 -170.88724237 70.26144934 -170.20724237 70.26144934 C-170.10282831 69.68910559 -169.99841424 69.11676184 -169.89083612 68.52707434 C-169.09564738 65.89159166 -167.92822746 64.20113626 -166.26974237 62.01144934 C-165.74509393 61.30504309 -165.22044549 60.59863684 -164.67989862 59.87082434 C-164.19392206 59.33973059 -163.70794549 58.80863684 -163.20724237 58.26144934 C-162.54724237 58.26144934 -161.88724237 58.26144934 -161.20724237 58.26144934 C-160.87724237 57.27144934 -160.54724237 56.28144934 -160.20724237 55.26144934 C-159.54724237 55.26144934 -158.88724237 55.26144934 -158.20724237 55.26144934 C-157.95974237 54.51894934 -157.71224237 53.77644934 -157.45724237 53.01144934 C-156.10259198 50.03121847 -154.69708827 48.36225682 -152.20724237 46.26144934 C-151.54724237 46.26144934 -150.88724237 46.26144934 -150.20724237 46.26144934 C-150.20724237 45.60144934 -150.20724237 44.94144934 -150.20724237 44.26144934 C-145.73665413 40.26144934 -145.73665413 40.26144934 -143.20724237 40.26144934 C-142.87724237 39.27144934 -142.54724237 38.28144934 -142.20724237 37.26144934 C-141.54724237 37.26144934 -140.88724237 37.26144934 -140.20724237 37.26144934 C-140.20724237 36.60144934 -140.20724237 35.94144934 -140.20724237 35.26144934 C-138.22724237 34.76644934 -138.22724237 34.76644934 -136.20724237 34.26144934 C-136.20724237 33.60144934 -136.20724237 32.94144934 -136.20724237 32.26144934 C-134.88724237 31.93144934 -133.56724237 31.60144934 -132.20724237 31.26144934 C-132.20724237 30.60144934 -132.20724237 29.94144934 -132.20724237 29.26144934 C-130.88724237 28.93144934 -129.56724237 28.60144934 -128.20724237 28.26144934 C-128.20724237 27.60144934 -128.20724237 26.94144934 -128.20724237 26.26144934 C-126.55724237 25.93144934 -124.90724237 25.60144934 -123.20724237 25.26144934 C-123.20724237 24.60144934 -123.20724237 23.94144934 -123.20724237 23.26144934 C-121.55724237 22.93144934 -119.90724237 22.60144934 -118.20724237 22.26144934 C-118.20724237 21.60144934 -118.20724237 20.94144934 -118.20724237 20.26144934 C-116.77295236 19.58790434 -115.3346718 18.92285233 -113.89474237 18.26144934 C-112.69398065 17.70457434 -112.69398065 17.70457434 -111.46896112 17.13644934 C-109.20724237 16.26144934 -109.20724237 16.26144934 -106.20724237 16.26144934 C-106.20724237 15.60144934 -106.20724237 14.94144934 -106.20724237 14.26144934 C-105.25462518 13.92371496 -104.30200799 13.58598059 -103.32052362 13.23801184 C-102.05357827 12.78754238 -100.78665221 12.33701867 -99.51974237 11.88644934 C-97.65769159 11.22516027 -97.65769159 11.22516027 -95.75802362 10.55051184 C-93.63123873 9.77841171 -91.5152388 8.97376246 -89.42599237 8.10519934 C-86.89264711 7.14181452 -84.89517715 7.10785306 -82.20724237 7.26144934 C-82.20724237 6.60144934 -82.20724237 5.94144934 -82.20724237 5.26144934 C-80.92526971 5.06228918 -80.92526971 5.06228918 -79.61739862 4.85910559 C-78.51267206 4.68250402 -77.40794549 4.50590246 -76.26974237 4.32394934 C-75.16759393 4.1499259 -74.06544549 3.97590246 -72.92989862 3.79660559 C-70.30297308 3.54299798 -70.30297308 3.54299798 -69.20724237 2.26144934 C-46.49810398 -1.10030915 -22.87624397 -0.02833187 0 0 Z M84.06228888 164.55441809 C81.13186015 168.49471764 81.64728926 172.89422483 81.65231574 177.56770849 C81.64934461 178.4249955 81.64637349 179.28228251 81.64331234 180.16554791 C81.63461453 183.04900596 81.63311619 185.93242255 81.63162482 188.8158927 C81.62699749 190.87878524 81.62197295 192.94167694 81.61657965 195.00456762 C81.60344735 200.61604951 81.59700933 206.22751943 81.59256899 211.83901429 C81.58964024 215.34219398 81.58553586 218.84537038 81.58106482 222.34854841 C81.56738909 233.30170885 81.55772221 244.25486178 81.55386293 255.20803016 C81.54937871 267.86629064 81.5318142 280.52444332 81.50286233 293.18267101 C81.48127633 302.95851154 81.47116034 312.73432166 81.46982181 322.51018578 C81.46877178 328.353193 81.46282163 334.1960989 81.4450022 340.0390811 C81.42857426 345.53264005 81.42634026 351.02602093 81.43514121 356.51959562 C81.43591436 358.53845714 81.43153247 360.55732803 81.42168295 362.57616568 C81.40904636 365.32706058 81.41479485 368.07731684 81.42526495 370.82820654 C81.41720855 371.63160796 81.40915215 372.43500937 81.40085161 373.26275629 C81.43020303 376.54817618 81.57116031 378.86619525 83.19463217 381.76191568 C84.67712653 383.40928366 84.67712653 383.40928366 86.73025763 383.68723059 C87.75119513 383.63115637 87.75119513 383.63115637 88.79275763 383.57394934 C89.47338263 383.54945715 90.15400763 383.52496496 90.85525763 383.49973059 C93.00720906 383.30000041 93.00720906 383.30000041 95.79275763 382.26144934 C95.79275763 381.60144934 95.79275763 380.94144934 95.79275763 380.26144934 C97.77275763 379.93144934 99.75275763 379.60144934 101.79275763 379.26144934 C101.79275763 378.60144934 101.79275763 377.94144934 101.79275763 377.26144934 C104.10275763 376.93144934 106.41275763 376.60144934 108.79275763 376.26144934 C108.79275763 375.60144934 108.79275763 374.94144934 108.79275763 374.26144934 C110.77275763 373.93144934 112.75275763 373.60144934 114.79275763 373.26144934 C114.79275763 372.60144934 114.79275763 371.94144934 114.79275763 371.26144934 C116.77275763 370.93144934 118.75275763 370.60144934 120.79275763 370.26144934 C120.79275763 369.60144934 120.79275763 368.94144934 120.79275763 368.26144934 C122.77275763 367.93144934 124.75275763 367.60144934 126.79275763 367.26144934 C126.79275763 366.60144934 126.79275763 365.94144934 126.79275763 365.26144934 C127.63838263 365.15832434 128.48400763 365.05519934 129.35525763 364.94894934 C133.20718464 364.17856394 136.23350795 362.89870419 139.79275763 361.26144934 C139.79275763 360.60144934 139.79275763 359.94144934 139.79275763 359.26144934 C140.63838263 359.15832434 141.48400763 359.05519934 142.35525763 358.94894934 C146.20718464 358.17856394 149.23350795 356.89870419 152.79275763 355.26144934 C152.79275763 354.60144934 152.79275763 353.94144934 152.79275763 353.26144934 C154.77275763 352.93144934 156.75275763 352.60144934 158.79275763 352.26144934 C158.79275763 351.60144934 158.79275763 350.94144934 158.79275763 350.26144934 C160.77275763 349.93144934 162.75275763 349.60144934 164.79275763 349.26144934 C164.79275763 348.60144934 164.79275763 347.94144934 164.79275763 347.26144934 C165.63838263 347.15832434 166.48400763 347.05519934 167.35525763 346.94894934 C171.20718464 346.17856394 174.23350795 344.89870419 177.79275763 343.26144934 C177.79275763 342.60144934 177.79275763 341.94144934 177.79275763 341.26144934 C179.77275763 340.93144934 181.75275763 340.60144934 183.79275763 340.26144934 C183.79275763 339.60144934 183.79275763 338.94144934 183.79275763 338.26144934 C185.77275763 337.93144934 187.75275763 337.60144934 189.79275763 337.26144934 C189.79275763 336.60144934 189.79275763 335.94144934 189.79275763 335.26144934 C190.63838263 335.15832434 191.48400763 335.05519934 192.35525763 334.94894934 C196.20718464 334.17856394 199.23350795 332.89870419 202.79275763 331.26144934 C202.79275763 330.60144934 202.79275763 329.94144934 202.79275763 329.26144934 C204.77275763 328.93144934 206.75275763 328.60144934 208.79275763 328.26144934 C208.79275763 327.60144934 208.79275763 326.94144934 208.79275763 326.26144934 C209.63838263 326.15832434 210.48400763 326.05519934 211.35525763 325.94894934 C215.20718464 325.17856394 218.23350795 323.89870419 221.79275763 322.26144934 C221.79275763 321.60144934 221.79275763 320.94144934 221.79275763 320.26144934 C223.77275763 319.93144934 225.75275763 319.60144934 227.79275763 319.26144934 C227.79275763 318.60144934 227.79275763 317.94144934 227.79275763 317.26144934 C229.06119513 317.10676184 229.06119513 317.10676184 230.35525763 316.94894934 C234.20718464 316.17856394 237.23350795 314.89870419 240.79275763 313.26144934 C240.79275763 312.60144934 240.79275763 311.94144934 240.79275763 311.26144934 C242.77275763 310.93144934 244.75275763 310.60144934 246.79275763 310.26144934 C246.79275763 309.60144934 246.79275763 308.94144934 246.79275763 308.26144934 C248.77275763 307.93144934 250.75275763 307.60144934 252.79275763 307.26144934 C252.79275763 306.60144934 252.79275763 305.94144934 252.79275763 305.26144934 C254.06119513 305.10676184 254.06119513 305.10676184 255.35525763 304.94894934 C259.20718464 304.17856394 262.23350795 302.89870419 265.79275763 301.26144934 C265.79275763 300.60144934 265.79275763 299.94144934 265.79275763 299.26144934 C267.77275763 298.93144934 269.75275763 298.60144934 271.79275763 298.26144934 C271.79275763 297.60144934 271.79275763 296.94144934 271.79275763 296.26144934 C273.06119513 296.10676184 273.06119513 296.10676184 274.35525763 295.94894934 C278.20718464 295.17856394 281.23350795 293.89870419 284.79275763 292.26144934 C284.79275763 291.60144934 284.79275763 290.94144934 284.79275763 290.26144934 C287.76275763 289.76644934 287.76275763 289.76644934 290.79275763 289.26144934 C290.79275763 288.60144934 290.79275763 287.94144934 290.79275763 287.26144934 C293.76275763 286.76644934 293.76275763 286.76644934 296.79275763 286.26144934 C296.79275763 285.60144934 296.79275763 284.94144934 296.79275763 284.26144934 C297.74150763 284.15832434 298.69025763 284.05519934 299.66775763 283.94894934 C303.08383264 283.57605639 303.08383264 283.57605639 304.79275763 280.26144934 C305.03331231 278.20435338 305.03331231 278.20435338 304.91775763 276.07394934 C304.87650763 274.81582434 304.83525763 273.55769934 304.79275763 272.26144934 C303.80275763 271.93144934 302.81275763 271.60144934 301.79275763 271.26144934 C301.79275763 270.60144934 301.79275763 269.94144934 301.79275763 269.26144934 C300.60037482 268.70715246 299.40799201 268.15285559 298.17947638 267.58176184 C296.61301033 266.85011901 295.04660737 266.11834113 293.48025763 265.38644934 C292.69457404 265.02164465 291.90889044 264.65683996 291.09939826 264.28098059 C290.34207404 263.9264884 289.58474982 263.57199621 288.80447638 263.20676184 C288.1079798 262.88207922 287.41148322 262.5573966 286.69388068 262.22287512 C284.79275763 261.26144934 284.79275763 261.26144934 281.79275763 259.26144934 C280.80275763 259.26144934 279.81275763 259.26144934 278.79275763 259.26144934 C278.79275763 258.60144934 278.79275763 257.94144934 278.79275763 257.26144934 C275.82275763 256.76644934 275.82275763 256.76644934 272.79275763 256.26144934 C272.79275763 255.60144934 272.79275763 254.94144934 272.79275763 254.26144934 C269.82275763 253.76644934 269.82275763 253.76644934 266.79275763 253.26144934 C266.79275763 252.60144934 266.79275763 251.94144934 266.79275763 251.26144934 C263.82275763 250.76644934 263.82275763 250.76644934 260.79275763 250.26144934 C260.79275763 249.60144934 260.79275763 248.94144934 260.79275763 248.26144934 C257.82275763 247.76644934 257.82275763 247.76644934 254.79275763 247.26144934 C254.79275763 246.60144934 254.79275763 245.94144934 254.79275763 245.26144934 C251.82275763 244.76644934 251.82275763 244.76644934 248.79275763 244.26144934 C248.79275763 243.60144934 248.79275763 242.94144934 248.79275763 242.26144934 C245.82275763 241.76644934 245.82275763 241.76644934 242.79275763 241.26144934 C242.79275763 240.60144934 242.79275763 239.94144934 242.79275763 239.26144934 C239.82275763 238.76644934 239.82275763 238.76644934 236.79275763 238.26144934 C236.79275763 237.60144934 236.79275763 236.94144934 236.79275763 236.26144934 C233.82275763 235.76644934 233.82275763 235.76644934 230.79275763 235.26144934 C230.79275763 234.60144934 230.79275763 233.94144934 230.79275763 233.26144934 C227.82275763 232.76644934 227.82275763 232.76644934 224.79275763 232.26144934 C224.79275763 231.60144934 224.79275763 230.94144934 224.79275763 230.26144934 C223.60037482 229.70715246 222.40799201 229.15285559 221.17947638 228.58176184 C219.61301033 227.85011901 218.04660737 227.11834113 216.48025763 226.38644934 C215.69457404 226.02164465 214.90889044 225.65683996 214.09939826 225.28098059 C213.34207404 224.9264884 212.58474982 224.57199621 211.80447638 224.20676184 C210.75973151 223.71973791 210.75973151 223.71973791 209.69388068 223.22287512 C207.79275763 222.26144934 207.79275763 222.26144934 204.79275763 220.26144934 C203.80275763 220.26144934 202.81275763 220.26144934 201.79275763 220.26144934 C201.79275763 219.60144934 201.79275763 218.94144934 201.79275763 218.26144934 C199.81275763 217.93144934 197.83275763 217.60144934 195.79275763 217.26144934 C195.79275763 216.60144934 195.79275763 215.94144934 195.79275763 215.26144934 C193.81275763 214.93144934 191.83275763 214.60144934 189.79275763 214.26144934 C189.79275763 213.60144934 189.79275763 212.94144934 189.79275763 212.26144934 C187.81275763 211.93144934 185.83275763 211.60144934 183.79275763 211.26144934 C183.79275763 210.60144934 183.79275763 209.94144934 183.79275763 209.26144934 C181.81275763 208.93144934 179.83275763 208.60144934 177.79275763 208.26144934 C177.79275763 207.60144934 177.79275763 206.94144934 177.79275763 206.26144934 C175.81275763 205.93144934 173.83275763 205.60144934 171.79275763 205.26144934 C171.79275763 204.60144934 171.79275763 203.94144934 171.79275763 203.26144934 C169.81275763 202.93144934 167.83275763 202.60144934 165.79275763 202.26144934 C165.79275763 201.60144934 165.79275763 200.94144934 165.79275763 200.26144934 C163.81275763 199.93144934 161.83275763 199.60144934 159.79275763 199.26144934 C159.79275763 198.60144934 159.79275763 197.94144934 159.79275763 197.26144934 C157.81275763 196.93144934 155.83275763 196.60144934 153.79275763 196.26144934 C153.79275763 195.60144934 153.79275763 194.94144934 153.79275763 194.26144934 C151.81275763 193.93144934 149.83275763 193.60144934 147.79275763 193.26144934 C147.79275763 192.60144934 147.79275763 191.94144934 147.79275763 191.26144934 C145.81275763 190.93144934 143.83275763 190.60144934 141.79275763 190.26144934 C141.79275763 189.60144934 141.79275763 188.94144934 141.79275763 188.26144934 C139.81275763 187.93144934 137.83275763 187.60144934 135.79275763 187.26144934 C135.79275763 186.60144934 135.79275763 185.94144934 135.79275763 185.26144934 C134.60037482 184.70715246 133.40799201 184.15285559 132.17947638 183.58176184 C130.61301033 182.85011901 129.04660737 182.11834113 127.48025763 181.38644934 C126.69457404 181.02164465 125.90889044 180.65683996 125.09939826 180.28098059 C124.34207404 179.9264884 123.58474982 179.57199621 122.80447638 179.20676184 C122.1079798 178.88207922 121.41148322 178.5573966 120.69388068 178.22287512 C118.79275763 177.26144934 118.79275763 177.26144934 115.79275763 175.26144934 C114.80275763 175.26144934 113.81275763 175.26144934 112.79275763 175.26144934 C112.79275763 174.60144934 112.79275763 173.94144934 112.79275763 173.26144934 C109.82275763 172.76644934 109.82275763 172.76644934 106.79275763 172.26144934 C106.79275763 171.60144934 106.79275763 170.94144934 106.79275763 170.26144934 C103.82275763 169.76644934 103.82275763 169.76644934 100.79275763 169.26144934 C100.79275763 168.60144934 100.79275763 167.94144934 100.79275763 167.26144934 C97.82275763 166.76644934 97.82275763 166.76644934 94.79275763 166.26144934 C94.79275763 165.60144934 94.79275763 164.94144934 94.79275763 164.26144934 C93.35865395 164.01190928 91.92015691 163.78752291 90.48025763 163.57394934 C89.67974982 163.44633215 88.87924201 163.31871496 88.05447638 163.18723059 C85.73505823 163.04750969 85.73505823 163.04750969 84.06228888 164.55441809 Z " fill="#13102F" transform="translate(326.2072423696518,238.73855066299438)"/>
</svg>
